<?xml version="1.0" encoding="utf-8" standalone="no"?>
<!DOCTYPE svg PUBLIC "-//W3C//DTD SVG 1.1//EN"
  "http://www.w3.org/Graphics/SVG/1.1/DTD/svg11.dtd">
<!-- Created with matplotlib (http://matplotlib.org/) -->
<svg height="345pt" version="1.1" viewBox="0 0 460 345" width="460pt" xmlns="http://www.w3.org/2000/svg" xmlns:xlink="http://www.w3.org/1999/xlink">
 <defs>
  <style type="text/css">
*{stroke-linecap:butt;stroke-linejoin:round;}
  </style>
 </defs>
 <g id="figure_1">
  <g id="patch_1">
   <path d="M 0 345.6 
L 460.8 345.6 
L 460.8 0 
L 0 0 
z
" style="fill:#ffffff;"/>
  </g>
  <g id="axes_1">
   <g id="patch_2">
    <path d="M 57.6 307.584 
L 414.72 307.584 
L 414.72 41.472 
L 57.6 41.472 
z
" style="fill:#ffffff;"/>
   </g>
   <g id="matplotlib.axis_1">
    <g id="xtick_1">
     <g id="line2d_1">
      <path clip-path="url(#p0a392b7327)" d="M 73.832727 307.584 
L 73.832727 41.472 
" style="fill:none;stroke:#cccccc;stroke-dasharray:1.85,0.8;stroke-dashoffset:0;stroke-width:0.5;"/>
     </g>
     <g id="line2d_2"/>
     <g id="text_1">
      <!-- 0 -->
      <defs>
       <path d="M 51.703125 34.421875 
Q 51.703125 24.515625 49.828125 17.75 
Q 47.953125 10.984375 44.703125 6.8125 
Q 41.453125 2.640625 37.0625 0.828125 
Q 32.671875 -0.984375 27.6875 -0.984375 
Q 22.65625 -0.984375 18.3125 0.828125 
Q 13.96875 2.640625 10.765625 6.78125 
Q 7.5625 10.9375 5.734375 17.703125 
Q 3.90625 24.46875 3.90625 34.421875 
Q 3.90625 44.828125 5.734375 51.640625 
Q 7.5625 58.453125 10.78125 62.5 
Q 14.015625 66.546875 18.40625 68.1875 
Q 22.796875 69.828125 27.984375 69.828125 
Q 32.90625 69.828125 37.21875 68.1875 
Q 41.546875 66.546875 44.765625 62.5 
Q 48 58.453125 49.84375 51.640625 
Q 51.703125 44.828125 51.703125 34.421875 
z
M 42.78125 34.421875 
Q 42.78125 42.625 41.796875 48.0625 
Q 40.828125 53.515625 38.921875 56.765625 
Q 37.015625 60.015625 34.25 61.359375 
Q 31.5 62.703125 27.984375 62.703125 
Q 24.265625 62.703125 21.4375 61.328125 
Q 18.609375 59.96875 16.671875 56.71875 
Q 14.75 53.46875 13.765625 48.015625 
Q 12.796875 42.578125 12.796875 34.421875 
Q 12.796875 26.515625 13.796875 21.09375 
Q 14.796875 15.671875 16.71875 12.375 
Q 18.65625 9.078125 21.4375 7.640625 
Q 24.21875 6.203125 27.78125 6.203125 
Q 31.25 6.203125 34.03125 7.640625 
Q 36.8125 9.078125 38.734375 12.375 
Q 40.671875 15.671875 41.71875 21.09375 
Q 42.78125 26.515625 42.78125 34.421875 
z
" id="LiberationSans-30"/>
      </defs>
      <g style="fill:#262626;" transform="translate(71.052259 318.330875)scale(0.1 -0.1)">
       <use xlink:href="#LiberationSans-30"/>
      </g>
     </g>
    </g>
    <g id="xtick_2">
     <g id="line2d_3">
      <path clip-path="url(#p0a392b7327)" d="M 127.941818 307.584 
L 127.941818 41.472 
" style="fill:none;stroke:#cccccc;stroke-dasharray:1.85,0.8;stroke-dashoffset:0;stroke-width:0.5;"/>
     </g>
     <g id="line2d_4"/>
     <g id="text_2">
      <!-- 5 -->
      <defs>
       <path d="M 51.421875 22.40625 
Q 51.421875 17.234375 49.859375 12.9375 
Q 48.296875 8.640625 45.21875 5.53125 
Q 42.140625 2.4375 37.578125 0.71875 
Q 33.015625 -0.984375 27 -0.984375 
Q 21.578125 -0.984375 17.546875 0.28125 
Q 13.53125 1.5625 10.734375 3.78125 
Q 7.953125 6 6.3125 8.984375 
Q 4.6875 11.96875 4 15.375 
L 12.890625 16.40625 
Q 13.421875 14.453125 14.390625 12.625 
Q 15.375 10.796875 17.0625 9.34375 
Q 18.75 7.90625 21.21875 7.046875 
Q 23.6875 6.203125 27.203125 6.203125 
Q 30.609375 6.203125 33.390625 7.25 
Q 36.1875 8.296875 38.15625 10.34375 
Q 40.140625 12.40625 41.203125 15.375 
Q 42.28125 18.359375 42.28125 22.21875 
Q 42.28125 25.390625 41.25 28.046875 
Q 40.234375 30.71875 38.328125 32.640625 
Q 36.421875 34.578125 33.65625 35.640625 
Q 30.90625 36.71875 27.390625 36.71875 
Q 25.203125 36.71875 23.34375 36.328125 
Q 21.484375 35.9375 19.890625 35.25 
Q 18.3125 34.578125 17.015625 33.671875 
Q 15.71875 32.765625 14.59375 31.78125 
L 6 31.78125 
L 8.296875 68.796875 
L 47.40625 68.796875 
L 47.40625 61.328125 
L 16.3125 61.328125 
L 14.984375 39.5 
Q 17.328125 41.3125 20.84375 42.59375 
Q 24.359375 43.890625 29.203125 43.890625 
Q 34.328125 43.890625 38.421875 42.328125 
Q 42.53125 40.765625 45.40625 37.90625 
Q 48.296875 35.0625 49.859375 31.109375 
Q 51.421875 27.15625 51.421875 22.40625 
z
" id="LiberationSans-35"/>
      </defs>
      <g style="fill:#262626;" transform="translate(125.161349 318.330875)scale(0.1 -0.1)">
       <use xlink:href="#LiberationSans-35"/>
      </g>
     </g>
    </g>
    <g id="xtick_3">
     <g id="line2d_5">
      <path clip-path="url(#p0a392b7327)" d="M 182.050909 307.584 
L 182.050909 41.472 
" style="fill:none;stroke:#cccccc;stroke-dasharray:1.85,0.8;stroke-dashoffset:0;stroke-width:0.5;"/>
     </g>
     <g id="line2d_6"/>
     <g id="text_3">
      <!-- 10 -->
      <defs>
       <path d="M 7.625 0 
L 7.625 7.46875 
L 25.140625 7.46875 
L 25.140625 60.40625 
L 9.625 49.3125 
L 9.625 57.625 
L 25.875 68.796875 
L 33.984375 68.796875 
L 33.984375 7.46875 
L 50.734375 7.46875 
L 50.734375 0 
z
" id="LiberationSans-31"/>
      </defs>
      <g style="fill:#262626;" transform="translate(176.489972 318.330875)scale(0.1 -0.1)">
       <use xlink:href="#LiberationSans-31"/>
       <use x="55.615234" xlink:href="#LiberationSans-30"/>
      </g>
     </g>
    </g>
    <g id="xtick_4">
     <g id="line2d_7">
      <path clip-path="url(#p0a392b7327)" d="M 236.16 307.584 
L 236.16 41.472 
" style="fill:none;stroke:#cccccc;stroke-dasharray:1.85,0.8;stroke-dashoffset:0;stroke-width:0.5;"/>
     </g>
     <g id="line2d_8"/>
     <g id="text_4">
      <!-- 15 -->
      <g style="fill:#262626;" transform="translate(230.599063 318.330875)scale(0.1 -0.1)">
       <use xlink:href="#LiberationSans-31"/>
       <use x="55.615234" xlink:href="#LiberationSans-35"/>
      </g>
     </g>
    </g>
    <g id="xtick_5">
     <g id="line2d_9">
      <path clip-path="url(#p0a392b7327)" d="M 290.269091 307.584 
L 290.269091 41.472 
" style="fill:none;stroke:#cccccc;stroke-dasharray:1.85,0.8;stroke-dashoffset:0;stroke-width:0.5;"/>
     </g>
     <g id="line2d_10"/>
     <g id="text_5">
      <!-- 20 -->
      <defs>
       <path d="M 5.03125 0 
L 5.03125 6.203125 
Q 7.515625 11.921875 11.109375 16.28125 
Q 14.703125 20.65625 18.65625 24.1875 
Q 22.609375 27.734375 26.484375 30.765625 
Q 30.375 33.796875 33.5 36.8125 
Q 36.625 39.84375 38.546875 43.15625 
Q 40.484375 46.484375 40.484375 50.6875 
Q 40.484375 53.609375 39.59375 55.828125 
Q 38.71875 58.0625 37.0625 59.5625 
Q 35.40625 61.078125 33.078125 61.828125 
Q 30.765625 62.59375 27.9375 62.59375 
Q 25.296875 62.59375 22.96875 61.859375 
Q 20.65625 61.140625 18.84375 59.671875 
Q 17.046875 58.203125 15.890625 56.03125 
Q 14.75 53.859375 14.40625 50.984375 
L 5.421875 51.8125 
Q 5.859375 55.515625 7.46875 58.78125 
Q 9.078125 62.0625 11.90625 64.53125 
Q 14.75 67 18.71875 68.40625 
Q 22.703125 69.828125 27.9375 69.828125 
Q 33.0625 69.828125 37.0625 68.609375 
Q 41.0625 67.390625 43.8125 64.984375 
Q 46.578125 62.59375 48.046875 59.078125 
Q 49.515625 55.5625 49.515625 50.984375 
Q 49.515625 47.515625 48.265625 44.390625 
Q 47.015625 41.265625 44.9375 38.421875 
Q 42.875 35.59375 40.140625 32.953125 
Q 37.40625 30.328125 34.421875 27.8125 
Q 31.453125 25.296875 28.421875 22.828125 
Q 25.390625 20.359375 22.71875 17.859375 
Q 20.0625 15.375 17.96875 12.8125 
Q 15.875 10.25 14.703125 7.46875 
L 50.59375 7.46875 
L 50.59375 0 
z
" id="LiberationSans-32"/>
      </defs>
      <g style="fill:#262626;" transform="translate(284.708153 318.330875)scale(0.1 -0.1)">
       <use xlink:href="#LiberationSans-32"/>
       <use x="55.615234" xlink:href="#LiberationSans-30"/>
      </g>
     </g>
    </g>
    <g id="xtick_6">
     <g id="line2d_11">
      <path clip-path="url(#p0a392b7327)" d="M 344.378182 307.584 
L 344.378182 41.472 
" style="fill:none;stroke:#cccccc;stroke-dasharray:1.85,0.8;stroke-dashoffset:0;stroke-width:0.5;"/>
     </g>
     <g id="line2d_12"/>
     <g id="text_6">
      <!-- 25 -->
      <g style="fill:#262626;" transform="translate(338.817244 318.330875)scale(0.1 -0.1)">
       <use xlink:href="#LiberationSans-32"/>
       <use x="55.615234" xlink:href="#LiberationSans-35"/>
      </g>
     </g>
    </g>
    <g id="xtick_7">
     <g id="line2d_13">
      <path clip-path="url(#p0a392b7327)" d="M 398.487273 307.584 
L 398.487273 41.472 
" style="fill:none;stroke:#cccccc;stroke-dasharray:1.85,0.8;stroke-dashoffset:0;stroke-width:0.5;"/>
     </g>
     <g id="line2d_14"/>
     <g id="text_7">
      <!-- 30 -->
      <defs>
       <path d="M 51.21875 19 
Q 51.21875 14.265625 49.671875 10.546875 
Q 48.140625 6.84375 45.1875 4.265625 
Q 42.234375 1.703125 37.859375 0.359375 
Q 33.5 -0.984375 27.875 -0.984375 
Q 21.484375 -0.984375 17.109375 0.609375 
Q 12.75 2.203125 9.90625 4.8125 
Q 7.078125 7.421875 5.65625 10.765625 
Q 4.25 14.109375 3.8125 17.671875 
L 12.890625 18.5 
Q 13.28125 15.765625 14.328125 13.515625 
Q 15.375 11.28125 17.1875 9.671875 
Q 19 8.0625 21.625 7.171875 
Q 24.265625 6.296875 27.875 6.296875 
Q 34.515625 6.296875 38.296875 9.5625 
Q 42.09375 12.84375 42.09375 19.28125 
Q 42.09375 23.09375 40.40625 25.40625 
Q 38.71875 27.734375 36.203125 29.03125 
Q 33.6875 30.328125 30.734375 30.765625 
Q 27.78125 31.203125 25.296875 31.203125 
L 20.3125 31.203125 
L 20.3125 38.8125 
L 25.09375 38.8125 
Q 27.59375 38.8125 30.265625 39.328125 
Q 32.953125 39.84375 35.171875 41.1875 
Q 37.40625 42.53125 38.84375 44.828125 
Q 40.28125 47.125 40.28125 50.6875 
Q 40.28125 56.203125 37.03125 59.390625 
Q 33.796875 62.59375 27.390625 62.59375 
Q 21.578125 62.59375 17.984375 59.609375 
Q 14.40625 56.640625 13.8125 51.21875 
L 4.984375 51.90625 
Q 5.515625 56.453125 7.46875 59.8125 
Q 9.421875 63.1875 12.421875 65.40625 
Q 15.4375 67.625 19.28125 68.71875 
Q 23.140625 69.828125 27.484375 69.828125 
Q 33.25 69.828125 37.390625 68.375 
Q 41.546875 66.9375 44.1875 64.46875 
Q 46.828125 62.015625 48.0625 58.6875 
Q 49.3125 55.375 49.3125 51.609375 
Q 49.3125 48.578125 48.484375 45.9375 
Q 47.65625 43.3125 45.890625 41.203125 
Q 44.140625 39.109375 41.421875 37.59375 
Q 38.71875 36.078125 34.90625 35.296875 
L 34.90625 35.109375 
Q 39.0625 34.671875 42.140625 33.21875 
Q 45.21875 31.78125 47.21875 29.625 
Q 49.21875 27.484375 50.21875 24.75 
Q 51.21875 22.015625 51.21875 19 
z
" id="LiberationSans-33"/>
      </defs>
      <g style="fill:#262626;" transform="translate(392.926335 318.330875)scale(0.1 -0.1)">
       <use xlink:href="#LiberationSans-33"/>
       <use x="55.615234" xlink:href="#LiberationSans-30"/>
      </g>
     </g>
    </g>
    <g id="text_8">
     <!-- $x$ [m] -->
     <defs>
      <path d="M 60.015625 54.6875 
L 34.90625 27.875 
L 50.296875 0 
L 39.984375 0 
L 28.421875 21.6875 
L 8.296875 0 
L -2.59375 0 
L 24.3125 28.8125 
L 10.015625 54.6875 
L 20.3125 54.6875 
L 30.8125 34.90625 
L 49.125 54.6875 
z
" id="DejaVuSans-Oblique-78"/>
      <path id="LiberationSans-20"/>
      <path d="M 7.125 -20.75 
L 7.125 72.46875 
L 27 72.46875 
L 27 66.15625 
L 15.625 66.15625 
L 15.625 -14.453125 
L 27 -14.453125 
L 27 -20.75 
z
" id="LiberationSans-5b"/>
      <path d="M 37.5 0 
L 37.5 33.5 
Q 37.5 37.359375 37.015625 39.9375 
Q 36.53125 42.53125 35.375 44.109375 
Q 34.234375 45.703125 32.375 46.359375 
Q 30.515625 47.015625 27.828125 47.015625 
Q 25.046875 47.015625 22.796875 45.921875 
Q 20.5625 44.828125 18.96875 42.75 
Q 17.390625 40.671875 16.53125 37.625 
Q 15.671875 34.578125 15.671875 30.609375 
L 15.671875 0 
L 6.9375 0 
L 6.9375 41.546875 
Q 6.9375 43.21875 6.90625 45.046875 
Q 6.890625 46.875 6.828125 48.5 
Q 6.78125 50.140625 6.734375 51.3125 
Q 6.6875 52.484375 6.640625 52.828125 
L 14.9375 52.828125 
Q 14.984375 52.59375 15.03125 51.515625 
Q 15.09375 50.4375 15.15625 49.046875 
Q 15.234375 47.65625 15.28125 46.21875 
Q 15.328125 44.78125 15.328125 43.796875 
L 15.484375 43.796875 
Q 16.65625 46.09375 18.015625 47.953125 
Q 19.390625 49.8125 21.21875 51.09375 
Q 23.046875 52.390625 25.40625 53.09375 
Q 27.78125 53.8125 30.90625 53.8125 
Q 36.921875 53.8125 40.40625 51.421875 
Q 43.890625 49.03125 45.265625 43.796875 
L 45.40625 43.796875 
Q 46.578125 46.09375 48.046875 47.953125 
Q 49.515625 49.8125 51.46875 51.09375 
Q 53.421875 52.390625 55.859375 53.09375 
Q 58.296875 53.8125 61.421875 53.8125 
Q 65.4375 53.8125 68.328125 52.734375 
Q 71.234375 51.65625 73.09375 49.40625 
Q 74.953125 47.171875 75.828125 43.625 
Q 76.703125 40.09375 76.703125 35.203125 
L 76.703125 0 
L 68.015625 0 
L 68.015625 33.5 
Q 68.015625 37.359375 67.53125 39.9375 
Q 67.046875 42.53125 65.890625 44.109375 
Q 64.75 45.703125 62.890625 46.359375 
Q 61.03125 47.015625 58.34375 47.015625 
Q 55.5625 47.015625 53.3125 45.96875 
Q 51.078125 44.921875 49.484375 42.875 
Q 47.90625 40.828125 47.046875 37.75 
Q 46.1875 34.671875 46.1875 30.609375 
L 46.1875 0 
z
" id="LiberationSans-6d"/>
      <path d="M 0.78125 -20.75 
L 0.78125 -14.453125 
L 12.15625 -14.453125 
L 12.15625 66.15625 
L 0.78125 66.15625 
L 0.78125 72.46875 
L 20.65625 72.46875 
L 20.65625 -20.75 
z
" id="LiberationSans-5d"/>
     </defs>
     <g style="fill:#262626;" transform="translate(224.86 331.705875)scale(0.1 -0.1)">
      <use transform="translate(0 0.53125)" xlink:href="#DejaVuSans-Oblique-78"/>
      <use transform="translate(59.179688 0.53125)" xlink:href="#LiberationSans-20"/>
      <use transform="translate(86.962891 0.53125)" xlink:href="#LiberationSans-5b"/>
      <use transform="translate(114.746094 0.53125)" xlink:href="#LiberationSans-6d"/>
      <use transform="translate(198.046875 0.53125)" xlink:href="#LiberationSans-5d"/>
     </g>
    </g>
   </g>
   <g id="matplotlib.axis_2">
    <g id="ytick_1">
     <g id="line2d_15">
      <path clip-path="url(#p0a392b7327)" d="M 57.6 282.746182 
L 414.72 282.746182 
" style="fill:none;stroke:#cccccc;stroke-dasharray:1.85,0.8;stroke-dashoffset:0;stroke-width:0.5;"/>
     </g>
     <g id="line2d_16"/>
     <g id="text_9">
      <!-- 0 -->
      <g style="fill:#262626;" transform="translate(48.539062 286.369619)scale(0.1 -0.1)">
       <use xlink:href="#LiberationSans-30"/>
      </g>
     </g>
    </g>
    <g id="ytick_2">
     <g id="line2d_17">
      <path clip-path="url(#p0a392b7327)" d="M 57.6 228.637091 
L 414.72 228.637091 
" style="fill:none;stroke:#cccccc;stroke-dasharray:1.85,0.8;stroke-dashoffset:0;stroke-width:0.5;"/>
     </g>
     <g id="line2d_18"/>
     <g id="text_10">
      <!-- 5 -->
      <g style="fill:#262626;" transform="translate(48.539062 232.260528)scale(0.1 -0.1)">
       <use xlink:href="#LiberationSans-35"/>
      </g>
     </g>
    </g>
    <g id="ytick_3">
     <g id="line2d_19">
      <path clip-path="url(#p0a392b7327)" d="M 57.6 174.528 
L 414.72 174.528 
" style="fill:none;stroke:#cccccc;stroke-dasharray:1.85,0.8;stroke-dashoffset:0;stroke-width:0.5;"/>
     </g>
     <g id="line2d_20"/>
     <g id="text_11">
      <!-- 10 -->
      <g style="fill:#262626;" transform="translate(42.978125 178.151437)scale(0.1 -0.1)">
       <use xlink:href="#LiberationSans-31"/>
       <use x="55.615234" xlink:href="#LiberationSans-30"/>
      </g>
     </g>
    </g>
    <g id="ytick_4">
     <g id="line2d_21">
      <path clip-path="url(#p0a392b7327)" d="M 57.6 120.418909 
L 414.72 120.418909 
" style="fill:none;stroke:#cccccc;stroke-dasharray:1.85,0.8;stroke-dashoffset:0;stroke-width:0.5;"/>
     </g>
     <g id="line2d_22"/>
     <g id="text_12">
      <!-- 15 -->
      <g style="fill:#262626;" transform="translate(42.978125 124.042347)scale(0.1 -0.1)">
       <use xlink:href="#LiberationSans-31"/>
       <use x="55.615234" xlink:href="#LiberationSans-35"/>
      </g>
     </g>
    </g>
    <g id="ytick_5">
     <g id="line2d_23">
      <path clip-path="url(#p0a392b7327)" d="M 57.6 66.309818 
L 414.72 66.309818 
" style="fill:none;stroke:#cccccc;stroke-dasharray:1.85,0.8;stroke-dashoffset:0;stroke-width:0.5;"/>
     </g>
     <g id="line2d_24"/>
     <g id="text_13">
      <!-- 20 -->
      <g style="fill:#262626;" transform="translate(42.978125 69.933256)scale(0.1 -0.1)">
       <use xlink:href="#LiberationSans-32"/>
       <use x="55.615234" xlink:href="#LiberationSans-30"/>
      </g>
     </g>
    </g>
    <g id="text_14">
     <!-- $y$ [m] -->
     <defs>
      <path d="M 24.8125 -5.078125 
Q 18.5625 -15.578125 14.625 -18.1875 
Q 10.6875 -20.796875 4.59375 -20.796875 
L -2.484375 -20.796875 
L -0.984375 -13.28125 
L 4.203125 -13.28125 
Q 7.953125 -13.28125 10.59375 -11.234375 
Q 13.234375 -9.1875 16.5 -3.21875 
L 19.28125 2 
L 7.171875 54.6875 
L 16.703125 54.6875 
L 25.78125 12.796875 
L 50.875 54.6875 
L 60.296875 54.6875 
z
" id="DejaVuSans-Oblique-79"/>
     </defs>
     <g style="fill:#262626;" transform="translate(36.878125 185.828)rotate(-90)scale(0.1 -0.1)">
      <use transform="translate(0 0.53125)" xlink:href="#DejaVuSans-Oblique-79"/>
      <use transform="translate(59.179688 0.53125)" xlink:href="#LiberationSans-20"/>
      <use transform="translate(86.962891 0.53125)" xlink:href="#LiberationSans-5b"/>
      <use transform="translate(114.746094 0.53125)" xlink:href="#LiberationSans-6d"/>
      <use transform="translate(198.046875 0.53125)" xlink:href="#LiberationSans-5d"/>
     </g>
    </g>
   </g>
   <g id="patch_3">
    <path clip-path="url(#p0a392b7327)" d="M 120.203389 224.629159 
C 132.501032 224.629159 144.296651 219.743254 152.992398 211.047507 
C 161.688145 202.35176 166.57405 190.556141 166.57405 178.258498 
C 166.57405 165.960855 161.688145 154.165236 152.992398 145.469489 
C 144.296651 136.773742 132.501032 131.887837 120.203389 131.887837 
C 107.905746 131.887837 96.110126 136.773742 87.41438 145.469489 
C 78.718633 154.165236 73.832727 165.960855 73.832727 178.258498 
C 73.832727 190.556141 78.718633 202.35176 87.41438 211.047507 
C 96.110126 219.743254 107.905746 224.629159 120.203389 224.629159 
z
" style="fill:none;stroke:#000000;stroke-linejoin:miter;"/>
   </g>
   <g id="patch_4">
    <path clip-path="url(#p0a392b7327)" d="M 175.087958 188.160791 
C 177.350416 188.160791 179.520513 187.261908 181.120312 185.662109 
C 182.72011 184.06231 183.618994 181.892213 183.618994 179.629756 
C 183.618994 177.367299 182.72011 175.197201 181.120312 173.597403 
C 179.520513 171.997604 177.350416 171.09872 175.087958 171.09872 
C 172.825501 171.09872 170.655404 171.997604 169.055605 173.597403 
C 167.455807 175.197201 166.556923 177.367299 166.556923 179.629756 
C 166.556923 181.892213 167.455807 184.06231 169.055605 185.662109 
C 170.655404 187.261908 172.825501 188.160791 175.087958 188.160791 
z
" style="fill:none;stroke:#000000;stroke-linejoin:miter;"/>
   </g>
   <g id="patch_5">
    <path clip-path="url(#p0a392b7327)" d="M 169.722695 172.286736 
C 170.830754 172.286736 171.893579 171.846499 172.677094 171.062984 
C 173.46061 170.279468 173.900847 169.216643 173.900847 168.108585 
C 173.900847 167.000526 173.46061 165.937701 172.677094 165.154185 
C 171.893579 164.37067 170.830754 163.930433 169.722695 163.930433 
C 168.614637 163.930433 167.551812 164.37067 166.768296 165.154185 
C 165.98478 165.937701 165.544544 167.000526 165.544544 168.108585 
C 165.544544 169.216643 165.98478 170.279468 166.768296 171.062984 
C 167.551812 171.846499 168.614637 172.286736 169.722695 172.286736 
z
" style="fill:none;stroke:#000000;stroke-linejoin:miter;"/>
   </g>
   <g id="patch_6">
    <path clip-path="url(#p0a392b7327)" d="M 169.15405 195.046775 
C 170.262108 195.046775 171.324933 194.606539 172.108449 193.823023 
C 172.891964 193.039507 173.332201 191.976683 173.332201 190.868624 
C 173.332201 189.760565 172.891964 188.697741 172.108449 187.914225 
C 171.324933 187.130709 170.262108 186.690473 169.15405 186.690473 
C 168.045991 186.690473 166.983166 187.130709 166.19965 187.914225 
C 165.416135 188.697741 164.975898 189.760565 164.975898 190.868624 
C 164.975898 191.976683 165.416135 193.039507 166.19965 193.823023 
C 166.983166 194.606539 168.045991 195.046775 169.15405 195.046775 
z
" style="fill:none;stroke:#000000;stroke-linejoin:miter;"/>
   </g>
   <g id="patch_7">
    <path clip-path="url(#p0a392b7327)" d="M 94.535498 136.993497 
C 100.025936 136.993497 105.29224 134.812123 109.174567 130.929796 
C 113.056893 127.04747 115.238268 121.781166 115.238268 116.290727 
C 115.238268 110.800288 113.056893 105.533984 109.174567 101.651658 
C 105.29224 97.769331 100.025936 95.587957 94.535498 95.587957 
C 89.045059 95.587957 83.778755 97.769331 79.896428 101.651658 
C 76.014102 105.533984 73.832727 110.800288 73.832727 116.290727 
C 73.832727 121.781166 76.014102 127.04747 79.896428 130.929796 
C 83.778755 134.812123 89.045059 136.993497 94.535498 136.993497 
z
" style="fill:none;stroke:#000000;stroke-linejoin:miter;"/>
   </g>
   <g id="patch_8">
    <path clip-path="url(#p0a392b7327)" d="M 81.272221 148.551028 
C 83.245197 148.551028 85.137631 147.767156 86.532737 146.372051 
C 87.927842 144.976945 88.711714 143.084511 88.711714 141.111535 
C 88.711714 139.138558 87.927842 137.246124 86.532737 135.851018 
C 85.137631 134.455913 83.245197 133.672041 81.272221 133.672041 
C 79.299244 133.672041 77.40681 134.455913 76.011704 135.851018 
C 74.616599 137.246124 73.832727 139.138558 73.832727 141.111535 
C 73.832727 143.084511 74.616599 144.976945 76.011704 146.372051 
C 77.40681 147.767156 79.299244 148.551028 81.272221 148.551028 
z
" style="fill:none;stroke:#000000;stroke-linejoin:miter;"/>
   </g>
   <g id="patch_9">
    <path clip-path="url(#p0a392b7327)" d="M 121.465012 131.902628 
C 123.437989 131.902628 125.330423 131.118756 126.725528 129.723651 
C 128.120633 128.328546 128.904505 126.436112 128.904505 124.463135 
C 128.904505 122.490159 128.120633 120.597724 126.725528 119.202619 
C 125.330423 117.807514 123.437989 117.023642 121.465012 117.023642 
C 119.492035 117.023642 117.599601 117.807514 116.204496 119.202619 
C 114.809391 120.597724 114.025519 122.490159 114.025519 124.463135 
C 114.025519 126.436112 114.809391 128.328546 116.204496 129.723651 
C 117.599601 131.118756 119.492035 131.902628 121.465012 131.902628 
z
" style="fill:none;stroke:#000000;stroke-linejoin:miter;"/>
   </g>
   <g id="patch_10">
    <path clip-path="url(#p0a392b7327)" d="M 83.075742 97.867444 
C 85.527018 97.867444 87.878226 96.893542 89.61154 95.160228 
C 91.344854 93.426914 92.318756 91.075705 92.318756 88.624429 
C 92.318756 86.173153 91.344854 83.821945 89.61154 82.088631 
C 87.878226 80.355317 85.527018 79.381415 83.075742 79.381415 
C 80.624466 79.381415 78.273258 80.355317 76.539944 82.088631 
C 74.80663 83.821945 73.832727 86.173153 73.832727 88.624429 
C 73.832727 91.075705 74.80663 93.426914 76.539944 95.160228 
C 78.273258 96.893542 80.624466 97.867444 83.075742 97.867444 
z
" style="fill:none;stroke:#000000;stroke-linejoin:miter;"/>
   </g>
   <g id="patch_11">
    <path clip-path="url(#p0a392b7327)" d="M 77.154183 103.02745 
C 78.035044 103.02745 78.879945 102.67748 79.502808 102.054618 
C 80.12567 101.431756 80.47564 100.586854 80.47564 99.705994 
C 80.47564 98.825133 80.12567 97.980232 79.502808 97.35737 
C 78.879945 96.734507 78.035044 96.384538 77.154183 96.384538 
C 76.273323 96.384538 75.428422 96.734507 74.805559 97.35737 
C 74.182697 97.980232 73.832727 98.825133 73.832727 99.705994 
C 73.832727 100.586854 74.182697 101.431756 74.805559 102.054618 
C 75.428422 102.67748 76.273323 103.02745 77.154183 103.02745 
z
" style="fill:none;stroke:#000000;stroke-linejoin:miter;"/>
   </g>
   <g id="patch_12">
    <path clip-path="url(#p0a392b7327)" d="M 95.098765 95.594561 
C 95.979626 95.594561 96.824527 95.244591 97.44739 94.621729 
C 98.070252 93.998866 98.420222 93.153965 98.420222 92.273105 
C 98.420222 91.392244 98.070252 90.547343 97.44739 89.92448 
C 96.824527 89.301618 95.979626 88.951648 95.098765 88.951648 
C 94.217905 88.951648 93.373004 89.301618 92.750141 89.92448 
C 92.127279 90.547343 91.777309 91.392244 91.777309 92.273105 
C 91.777309 93.153965 92.127279 93.998866 92.750141 94.621729 
C 93.373004 95.244591 94.217905 95.594561 95.098765 95.594561 
z
" style="fill:none;stroke:#000000;stroke-linejoin:miter;"/>
   </g>
   <g id="patch_13">
    <path clip-path="url(#p0a392b7327)" d="M 77.959388 80.399121 
C 79.053792 80.399121 80.103519 79.96431 80.877379 79.19045 
C 81.651239 78.41659 82.08605 77.366863 82.08605 76.27246 
C 82.08605 75.178056 81.651239 74.128329 80.877379 73.354469 
C 80.103519 72.580609 79.053792 72.145798 77.959388 72.145798 
C 76.864985 72.145798 75.815258 72.580609 75.041398 73.354469 
C 74.267538 74.128329 73.832727 75.178056 73.832727 76.27246 
C 73.832727 77.366863 74.267538 78.41659 75.041398 79.19045 
C 75.815258 79.96431 76.864985 80.399121 77.959388 80.399121 
z
" style="fill:none;stroke:#000000;stroke-linejoin:miter;"/>
   </g>
   <g id="patch_14">
    <path clip-path="url(#p0a392b7327)" d="M 75.315634 82.702871 
C 75.708905 82.702871 76.086122 82.546623 76.364207 82.268538 
C 76.642291 81.990453 76.79854 81.613236 76.79854 81.219965 
C 76.79854 80.826693 76.642291 80.449476 76.364207 80.171392 
C 76.086122 79.893307 75.708905 79.737058 75.315634 79.737058 
C 74.922362 79.737058 74.545145 79.893307 74.26706 80.171392 
C 73.988976 80.449476 73.832727 80.826693 73.832727 81.219965 
C 73.832727 81.613236 73.988976 81.990453 74.26706 82.268538 
C 74.545145 82.546623 74.922362 82.702871 75.315634 82.702871 
z
" style="fill:none;stroke:#000000;stroke-linejoin:miter;"/>
   </g>
   <g id="patch_15">
    <path clip-path="url(#p0a392b7327)" d="M 83.32722 79.384363 
C 83.720491 79.384363 84.097708 79.228115 84.375793 78.95003 
C 84.653878 78.671945 84.810126 78.294728 84.810126 77.901457 
C 84.810126 77.508186 84.653878 77.130969 84.375793 76.852884 
C 84.097708 76.574799 83.720491 76.418551 83.32722 76.418551 
C 82.933949 76.418551 82.556732 76.574799 82.278647 76.852884 
C 82.000562 77.130969 81.844314 77.508186 81.844314 77.901457 
C 81.844314 78.294728 82.000562 78.671945 82.278647 78.95003 
C 82.556732 79.228115 82.933949 79.384363 83.32722 79.384363 
z
" style="fill:none;stroke:#000000;stroke-linejoin:miter;"/>
   </g>
   <g id="patch_16">
    <path clip-path="url(#p0a392b7327)" d="M 93.440098 258.17198 
C 98.640034 258.17198 103.627693 256.106023 107.304603 252.429114 
C 110.981513 248.752204 113.047469 243.764544 113.047469 238.564609 
C 113.047469 233.364673 110.981513 228.377014 107.304603 224.700104 
C 103.627693 221.023194 98.640034 218.957238 93.440098 218.957238 
C 88.240163 218.957238 83.252503 221.023194 79.575593 224.700104 
C 75.898684 228.377014 73.832727 233.364673 73.832727 238.564609 
C 73.832727 243.764544 75.898684 248.752204 79.575593 252.429114 
C 83.252503 256.106023 88.240163 258.17198 93.440098 258.17198 
z
" style="fill:none;stroke:#000000;stroke-linejoin:miter;"/>
   </g>
   <g id="patch_17">
    <path clip-path="url(#p0a392b7327)" d="M 119.385501 239.022297 
C 121.294881 239.022297 123.126315 238.263692 124.476451 236.913556 
C 125.826587 235.56342 126.585192 233.731986 126.585192 231.822606 
C 126.585192 229.913226 125.826587 228.081792 124.476451 226.731656 
C 123.126315 225.38152 121.294881 224.622915 119.385501 224.622915 
C 117.476121 224.622915 115.644687 225.38152 114.294551 226.731656 
C 112.944415 228.081792 112.185811 229.913226 112.185811 231.822606 
C 112.185811 233.731986 112.944415 235.56342 114.294551 236.913556 
C 115.644687 238.263692 117.476121 239.022297 119.385501 239.022297 
z
" style="fill:none;stroke:#000000;stroke-linejoin:miter;"/>
   </g>
   <g id="patch_18">
    <path clip-path="url(#p0a392b7327)" d="M 81.032418 222.001555 
C 82.941798 222.001555 84.773232 221.24295 86.123368 219.892815 
C 87.473504 218.542679 88.232108 216.711245 88.232108 214.801865 
C 88.232108 212.892484 87.473504 211.06105 86.123368 209.710915 
C 84.773232 208.360779 82.941798 207.602174 81.032418 207.602174 
C 79.123038 207.602174 77.291604 208.360779 75.941468 209.710915 
C 74.591332 211.06105 73.832727 212.892484 73.832727 214.801865 
C 73.832727 216.711245 74.591332 218.542679 75.941468 219.892815 
C 77.291604 221.24295 79.123038 222.001555 81.032418 222.001555 
z
" style="fill:none;stroke:#000000;stroke-linejoin:miter;"/>
   </g>
   <g id="patch_19">
    <path clip-path="url(#p0a392b7327)" d="M 82.123508 272.355226 
C 84.322249 272.355226 86.431231 271.481657 87.985975 269.926913 
C 89.54072 268.372168 90.414289 266.263186 90.414289 264.064445 
C 90.414289 261.865704 89.54072 259.756722 87.985975 258.201978 
C 86.431231 256.647233 84.322249 255.773664 82.123508 255.773664 
C 79.924767 255.773664 77.815785 256.647233 76.261041 258.201978 
C 74.706296 259.756722 73.832727 261.865704 73.832727 264.064445 
C 73.832727 266.263186 74.706296 268.372168 76.261041 269.926913 
C 77.815785 271.481657 79.924767 272.355226 82.123508 272.355226 
z
" style="fill:none;stroke:#000000;stroke-linejoin:miter;"/>
   </g>
   <g id="patch_20">
    <path clip-path="url(#p0a392b7327)" d="M 93.094262 264.257974 
C 93.901625 264.257974 94.676028 263.937205 95.24692 263.366314 
C 95.817811 262.795423 96.13858 262.021019 96.13858 261.213657 
C 96.13858 260.406294 95.817811 259.631891 95.24692 259.060999 
C 94.676028 258.490108 93.901625 258.169339 93.094262 258.169339 
C 92.2869 258.169339 91.512497 258.490108 90.941605 259.060999 
C 90.370714 259.631891 90.049945 260.406294 90.049945 261.213657 
C 90.049945 262.021019 90.370714 262.795423 90.941605 263.366314 
C 91.512497 263.937205 92.2869 264.257974 93.094262 264.257974 
z
" style="fill:none;stroke:#000000;stroke-linejoin:miter;"/>
   </g>
   <g id="patch_21">
    <path clip-path="url(#p0a392b7327)" d="M 76.877044 257.060924 
C 77.684407 257.060924 78.45881 256.740155 79.029702 256.169264 
C 79.600593 255.598372 79.921362 254.823969 79.921362 254.016606 
C 79.921362 253.209244 79.600593 252.43484 79.029702 251.863949 
C 78.45881 251.293058 77.684407 250.972289 76.877044 250.972289 
C 76.069682 250.972289 75.295279 251.293058 74.724387 251.863949 
C 74.153496 252.43484 73.832727 253.209244 73.832727 254.016606 
C 73.832727 254.823969 74.153496 255.598372 74.724387 256.169264 
C 75.295279 256.740155 76.069682 257.060924 76.877044 257.060924 
z
" style="fill:none;stroke:#000000;stroke-linejoin:miter;"/>
   </g>
   <g id="patch_22">
    <path clip-path="url(#p0a392b7327)" d="M 244.148688 263.588973 
C 251.299411 263.588973 258.158221 260.747961 263.214545 255.691636 
C 268.27087 250.635312 271.111882 243.776502 271.111882 236.625779 
C 271.111882 229.475056 268.27087 222.616246 263.214545 217.559921 
C 258.158221 212.503597 251.299411 209.662585 244.148688 209.662585 
C 236.997965 209.662585 230.139155 212.503597 225.08283 217.559921 
C 220.026506 222.616246 217.185494 229.475056 217.185494 236.625779 
C 217.185494 243.776502 220.026506 250.635312 225.08283 255.691636 
C 230.139155 260.747961 236.997965 263.588973 244.148688 263.588973 
z
" style="fill:none;stroke:#000000;stroke-linejoin:miter;"/>
   </g>
   <g id="patch_23">
    <path clip-path="url(#p0a392b7327)" d="M 238.308929 277.592959 
C 240.232449 277.592959 242.077445 276.828737 243.437579 275.468603 
C 244.797713 274.108469 245.561935 272.263473 245.561935 270.339953 
C 245.561935 268.416434 244.797713 266.571438 243.437579 265.211304 
C 242.077445 263.85117 240.232449 263.086948 238.308929 263.086948 
C 236.38541 263.086948 234.540414 263.85117 233.18028 265.211304 
C 231.820146 266.571438 231.055924 268.416434 231.055924 270.339953 
C 231.055924 272.263473 231.820146 274.108469 233.18028 275.468603 
C 234.540414 276.828737 236.38541 277.592959 238.308929 277.592959 
z
" style="fill:none;stroke:#000000;stroke-linejoin:miter;"/>
   </g>
   <g id="patch_24">
    <path clip-path="url(#p0a392b7327)" d="M 247.968044 269.635488 
C 248.802075 269.635488 249.602058 269.304124 250.191806 268.714375 
C 250.781555 268.124627 251.112919 267.324644 251.112919 266.490613 
C 251.112919 265.656583 250.781555 264.8566 250.191806 264.266851 
C 249.602058 263.677102 248.802075 263.345739 247.968044 263.345739 
C 247.134014 263.345739 246.334031 263.677102 245.744282 264.266851 
C 245.154533 264.8566 244.823169 265.656583 244.823169 266.490613 
C 244.823169 267.324644 245.154533 268.124627 245.744282 268.714375 
C 246.334031 269.304124 247.134014 269.635488 247.968044 269.635488 
z
" style="fill:none;stroke:#000000;stroke-linejoin:miter;"/>
   </g>
   <g id="patch_25">
    <path clip-path="url(#p0a392b7327)" d="M 230.507209 266.611031 
C 231.34124 266.611031 232.141223 266.279667 232.730972 265.689919 
C 233.32072 265.10017 233.652084 264.300187 233.652084 263.466157 
C 233.652084 262.632126 233.32072 261.832143 232.730972 261.242394 
C 232.141223 260.652646 231.34124 260.321282 230.507209 260.321282 
C 229.673179 260.321282 228.873196 260.652646 228.283447 261.242394 
C 227.693698 261.832143 227.362335 262.632126 227.362335 263.466157 
C 227.362335 264.300187 227.693698 265.10017 228.283447 265.689919 
C 228.873196 266.279667 229.673179 266.611031 230.507209 266.611031 
z
" style="fill:none;stroke:#000000;stroke-linejoin:miter;"/>
   </g>
   <g id="patch_26">
    <path clip-path="url(#p0a392b7327)" d="M 277.862862 238.039026 
C 279.786382 238.039026 281.631378 237.274804 282.991512 235.91467 
C 284.351646 234.554536 285.115868 232.70954 285.115868 230.78602 
C 285.115868 228.862501 284.351646 227.017504 282.991512 225.657371 
C 281.631378 224.297237 279.786382 223.533015 277.862862 223.533015 
C 275.939343 223.533015 274.094347 224.297237 272.734213 225.657371 
C 271.374079 227.017504 270.609857 228.862501 270.609857 230.78602 
C 270.609857 232.70954 271.374079 234.554536 272.734213 235.91467 
C 274.094347 237.274804 275.939343 238.039026 277.862862 238.039026 
z
" style="fill:none;stroke:#000000;stroke-linejoin:miter;"/>
   </g>
   <g id="patch_27">
    <path clip-path="url(#p0a392b7327)" d="M 270.989066 226.129175 
C 271.823096 226.129175 272.623079 225.797811 273.212828 225.208062 
C 273.802577 224.618314 274.13394 223.818331 274.13394 222.9843 
C 274.13394 222.15027 273.802577 221.350287 273.212828 220.760538 
C 272.623079 220.170789 271.823096 219.839426 270.989066 219.839426 
C 270.155035 219.839426 269.355052 220.170789 268.765303 220.760538 
C 268.175555 221.350287 267.844191 222.15027 267.844191 222.9843 
C 267.844191 223.818331 268.175555 224.618314 268.765303 225.208062 
C 269.355052 225.797811 270.155035 226.129175 270.989066 226.129175 
z
" style="fill:none;stroke:#000000;stroke-linejoin:miter;"/>
   </g>
   <g id="patch_28">
    <path clip-path="url(#p0a392b7327)" d="M 274.013522 243.59001 
C 274.847553 243.59001 275.647536 243.258646 276.237285 242.668897 
C 276.827033 242.079149 277.158397 241.279166 277.158397 240.445135 
C 277.158397 239.611105 276.827033 238.811121 276.237285 238.221373 
C 275.647536 237.631624 274.847553 237.30026 274.013522 237.30026 
C 273.179492 237.30026 272.379509 237.631624 271.78976 238.221373 
C 271.200012 238.811121 270.868648 239.611105 270.868648 240.445135 
C 270.868648 241.279166 271.200012 242.079149 271.78976 242.668897 
C 272.379509 243.258646 273.179492 243.59001 274.013522 243.59001 
z
" style="fill:none;stroke:#000000;stroke-linejoin:miter;"/>
   </g>
   <g id="patch_29">
    <path clip-path="url(#p0a392b7327)" d="M 215.61417 221.481969 
C 219.165427 221.481969 222.571712 220.071039 225.08283 217.559921 
C 227.593949 215.048803 229.004878 211.642518 229.004878 208.091261 
C 229.004878 204.540003 227.593949 201.133718 225.08283 198.6226 
C 222.571712 196.111482 219.165427 194.700553 215.61417 194.700553 
C 212.062913 194.700553 208.656627 196.111482 206.145509 198.6226 
C 203.634391 201.133718 202.223462 204.540003 202.223462 208.091261 
C 202.223462 211.642518 203.634391 215.048803 206.145509 217.559921 
C 208.656627 220.071039 212.062913 221.481969 215.61417 221.481969 
z
" style="fill:none;stroke:#000000;stroke-linejoin:miter;"/>
   </g>
   <g id="patch_30">
    <path clip-path="url(#p0a392b7327)" d="M 214.40207 230.656798 
C 215.624085 230.656798 216.796214 230.171287 217.660308 229.307192 
C 218.524403 228.443097 219.009915 227.270968 219.009915 226.048953 
C 219.009915 224.826939 218.524403 223.65481 217.660308 222.790715 
C 216.796214 221.92662 215.624085 221.441109 214.40207 221.441109 
C 213.180055 221.441109 212.007927 221.92662 211.143832 222.790715 
C 210.279737 223.65481 209.794225 224.826939 209.794225 226.048953 
C 209.794225 227.270968 210.279737 228.443097 211.143832 229.307192 
C 212.007927 230.171287 213.180055 230.656798 214.40207 230.656798 
z
" style="fill:none;stroke:#000000;stroke-linejoin:miter;"/>
   </g>
   <g id="patch_31">
    <path clip-path="url(#p0a392b7327)" d="M 233.571862 211.487006 
C 234.793877 211.487006 235.966006 211.001494 236.830101 210.137399 
C 237.694196 209.273304 238.179707 208.101176 238.179707 206.879161 
C 238.179707 205.657146 237.694196 204.485018 236.830101 203.620923 
C 235.966006 202.756828 234.793877 202.271316 233.571862 202.271316 
C 232.349848 202.271316 231.177719 202.756828 230.313624 203.620923 
C 229.449529 204.485018 228.964018 205.657146 228.964018 206.879161 
C 228.964018 208.101176 229.449529 209.273304 230.313624 210.137399 
C 231.177719 211.001494 232.349848 211.487006 233.571862 211.487006 
z
" style="fill:none;stroke:#000000;stroke-linejoin:miter;"/>
   </g>
   <g id="patch_32">
    <path clip-path="url(#p0a392b7327)" d="M 201.443097 200.570403 
C 203.206754 200.570403 204.898415 199.869695 206.145509 198.6226 
C 207.392604 197.375506 208.093312 195.683845 208.093312 193.920187 
C 208.093312 192.15653 207.392604 190.464869 206.145509 189.217775 
C 204.898415 187.97068 203.206754 187.269972 201.443097 187.269972 
C 199.679439 187.269972 197.987778 187.97068 196.740684 189.217775 
C 195.493589 190.464869 194.792881 192.15653 194.792881 193.920187 
C 194.792881 195.683845 195.493589 197.375506 196.740684 198.6226 
C 197.987778 199.869695 199.679439 200.570403 201.443097 200.570403 
z
" style="fill:none;stroke:#000000;stroke-linejoin:miter;"/>
   </g>
   <g id="patch_33">
    <path clip-path="url(#p0a392b7327)" d="M 200.841132 205.126891 
C 201.448021 205.126891 202.030134 204.885772 202.459269 204.456637 
C 202.888403 204.027502 203.129523 203.445389 203.129523 202.838501 
C 203.129523 202.231613 202.888403 201.6495 202.459269 201.220365 
C 202.030134 200.79123 201.448021 200.550111 200.841132 200.550111 
C 200.234244 200.550111 199.652131 200.79123 199.222996 201.220365 
C 198.793862 201.6495 198.552742 202.231613 198.552742 202.838501 
C 198.552742 203.445389 198.793862 204.027502 199.222996 204.456637 
C 199.652131 204.885772 200.234244 205.126891 200.841132 205.126891 
z
" style="fill:none;stroke:#000000;stroke-linejoin:miter;"/>
   </g>
   <g id="patch_34">
    <path clip-path="url(#p0a392b7327)" d="M 210.36141 195.606613 
C 210.968298 195.606613 211.550411 195.365494 211.979546 194.936359 
C 212.408681 194.507225 212.6498 193.925112 212.6498 193.318223 
C 212.6498 192.711335 212.408681 192.129222 211.979546 191.700087 
C 211.550411 191.270953 210.968298 191.029833 210.36141 191.029833 
C 209.754522 191.029833 209.172409 191.270953 208.743274 191.700087 
C 208.314139 192.129222 208.07302 192.711335 208.07302 193.318223 
C 208.07302 193.925112 208.314139 194.507225 208.743274 194.936359 
C 209.172409 195.365494 209.754522 195.606613 210.36141 195.606613 
z
" style="fill:none;stroke:#000000;stroke-linejoin:miter;"/>
   </g>
   <g id="patch_35">
    <path clip-path="url(#p0a392b7327)" d="M 174.734842 282.746182 
C 185.043755 282.746182 194.93183 278.650407 202.221332 271.360905 
C 209.510834 264.071402 213.606609 254.183328 213.606609 243.874415 
C 213.606609 233.565502 209.510834 223.677427 202.221332 216.387925 
C 194.93183 209.098422 185.043755 205.002648 174.734842 205.002648 
C 164.425929 205.002648 154.537854 209.098422 147.248352 216.387925 
C 139.958849 223.677427 135.863075 233.565502 135.863075 243.874415 
C 135.863075 254.183328 139.958849 264.071402 147.248352 271.360905 
C 154.537854 278.650407 164.425929 282.746182 174.734842 282.746182 
z
" style="fill:none;stroke:#000000;stroke-linejoin:miter;"/>
   </g>
   <g id="patch_36">
    <path clip-path="url(#p0a392b7327)" d="M 121.371885 282.746182 
C 126.22884 282.746182 130.887521 280.816493 134.321907 277.382107 
C 137.756293 273.947721 139.685981 269.28904 139.685981 264.432085 
C 139.685981 259.57513 137.756293 254.916449 134.321907 251.482064 
C 130.887521 248.047678 126.22884 246.117989 121.371885 246.117989 
C 116.51493 246.117989 111.856249 248.047678 108.421863 251.482064 
C 104.987477 254.916449 103.057788 259.57513 103.057788 264.432085 
C 103.057788 269.28904 104.987477 273.947721 108.421863 277.382107 
C 111.856249 280.816493 116.51493 282.746182 121.371885 282.746182 
z
" style="fill:none;stroke:#000000;stroke-linejoin:miter;"/>
   </g>
   <g id="patch_37">
    <path clip-path="url(#p0a392b7327)" d="M 143.091673 282.746182 
C 144.799501 282.746182 146.437612 282.067654 147.645229 280.860037 
C 148.852846 279.65242 149.531373 278.01431 149.531373 276.306481 
C 149.531373 274.598653 148.852846 272.960543 147.645229 271.752925 
C 146.437612 270.545308 144.799501 269.866781 143.091673 269.866781 
C 141.383844 269.866781 139.745734 270.545308 138.538117 271.752925 
C 137.3305 272.960543 136.651972 274.598653 136.651972 276.306481 
C 136.651972 278.01431 137.3305 279.65242 138.538117 280.860037 
C 139.745734 282.067654 141.383844 282.746182 143.091673 282.746182 
z
" style="fill:none;stroke:#000000;stroke-linejoin:miter;"/>
   </g>
   <g id="patch_38">
    <path clip-path="url(#p0a392b7327)" d="M 129.511194 247.494401 
C 131.219023 247.494401 132.857133 246.815874 134.06475 245.608257 
C 135.272367 244.40064 135.950895 242.762529 135.950895 241.054701 
C 135.950895 239.346872 135.272367 237.708762 134.06475 236.501145 
C 132.857133 235.293528 131.219023 234.615 129.511194 234.615 
C 127.803366 234.615 126.165256 235.293528 124.957638 236.501145 
C 123.750021 237.708762 123.071494 239.346872 123.071494 241.054701 
C 123.071494 242.762529 123.750021 244.40064 124.957638 245.608257 
C 126.165256 246.815874 127.803366 247.494401 129.511194 247.494401 
z
" style="fill:none;stroke:#000000;stroke-linejoin:miter;"/>
   </g>
   <g id="patch_39">
    <path clip-path="url(#p0a392b7327)" d="M 96.23039 282.746182 
C 98.518702 282.746182 100.713599 281.837026 102.33168 280.218944 
C 103.949762 278.600863 104.858918 276.405966 104.858918 274.117654 
C 104.858918 271.829341 103.949762 269.634444 102.33168 268.016363 
C 100.713599 266.398282 98.518702 265.489126 96.23039 265.489126 
C 93.942077 265.489126 91.74718 266.398282 90.129099 268.016363 
C 88.511018 269.634444 87.601862 271.829341 87.601862 274.117654 
C 87.601862 276.405966 88.511018 278.600863 90.129099 280.218944 
C 91.74718 281.837026 93.942077 282.746182 96.23039 282.746182 
z
" style="fill:none;stroke:#000000;stroke-linejoin:miter;"/>
   </g>
   <g id="patch_40">
    <path clip-path="url(#p0a392b7327)" d="M 106.46348 282.746182 
C 107.268108 282.746182 108.03989 282.426499 108.608848 281.857541 
C 109.177807 281.288583 109.497489 280.516801 109.497489 279.712173 
C 109.497489 278.907544 109.177807 278.135763 108.608848 277.566804 
C 108.03989 276.997846 107.268108 276.678164 106.46348 276.678164 
C 105.658851 276.678164 104.88707 276.997846 104.318111 277.566804 
C 103.749153 278.135763 103.429471 278.907544 103.429471 279.712173 
C 103.429471 280.516801 103.749153 281.288583 104.318111 281.857541 
C 104.88707 282.426499 105.658851 282.746182 106.46348 282.746182 
z
" style="fill:none;stroke:#000000;stroke-linejoin:miter;"/>
   </g>
   <g id="patch_41">
    <path clip-path="url(#p0a392b7327)" d="M 100.065155 266.137611 
C 100.869784 266.137611 101.641565 265.817928 102.210523 265.24897 
C 102.779482 264.680012 103.099164 263.90823 103.099164 263.103601 
C 103.099164 262.298973 102.779482 261.527191 102.210523 260.958233 
C 101.641565 260.389275 100.869784 260.069592 100.065155 260.069592 
C 99.260526 260.069592 98.488745 260.389275 97.919787 260.958233 
C 97.350828 261.527191 97.031146 262.298973 97.031146 263.103601 
C 97.031146 263.90823 97.350828 264.680012 97.919787 265.24897 
C 98.488745 265.817928 99.260526 266.137611 100.065155 266.137611 
z
" style="fill:none;stroke:#000000;stroke-linejoin:miter;"/>
   </g>
   <g id="patch_42">
    <path clip-path="url(#p0a392b7327)" d="M 84.385192 282.746182 
C 85.463311 282.746182 86.497417 282.317841 87.259762 281.555496 
C 88.022107 280.793151 88.450448 279.759044 88.450448 278.680926 
C 88.450448 277.602807 88.022107 276.5687 87.259762 275.806355 
C 86.497417 275.04401 85.463311 274.615669 84.385192 274.615669 
C 83.307074 274.615669 82.272967 275.04401 81.510622 275.806355 
C 80.748277 276.5687 80.319936 277.602807 80.319936 278.680926 
C 80.319936 279.759044 80.748277 280.793151 81.510622 281.555496 
C 82.272967 282.317841 83.307074 282.746182 84.385192 282.746182 
z
" style="fill:none;stroke:#000000;stroke-linejoin:miter;"/>
   </g>
   <g id="patch_43">
    <path clip-path="url(#p0a392b7327)" d="M 89.206424 282.746182 
C 89.585518 282.746182 89.949136 282.595566 90.217196 282.327506 
C 90.485255 282.059447 90.635871 281.695828 90.635871 281.316735 
C 90.635871 280.937641 90.485255 280.574023 90.217196 280.305963 
C 89.949136 280.037903 89.585518 279.887288 89.206424 279.887288 
C 88.82733 279.887288 88.463712 280.037903 88.195652 280.305963 
C 87.927592 280.574023 87.776977 280.937641 87.776977 281.316735 
C 87.776977 281.695828 87.927592 282.059447 88.195652 282.327506 
C 88.463712 282.595566 88.82733 282.746182 89.206424 282.746182 
z
" style="fill:none;stroke:#000000;stroke-linejoin:miter;"/>
   </g>
   <g id="patch_44">
    <path clip-path="url(#p0a392b7327)" d="M 86.191908 274.921197 
C 86.571002 274.921197 86.93462 274.770582 87.20268 274.502522 
C 87.47074 274.234462 87.621356 273.870844 87.621356 273.49175 
C 87.621356 273.112656 87.47074 272.749038 87.20268 272.480978 
C 86.93462 272.212919 86.571002 272.062303 86.191908 272.062303 
C 85.812815 272.062303 85.449196 272.212919 85.181137 272.480978 
C 84.913077 272.749038 84.762461 273.112656 84.762461 273.49175 
C 84.762461 273.870844 84.913077 274.234462 85.181137 274.502522 
C 85.449196 274.770582 85.812815 274.921197 86.191908 274.921197 
z
" style="fill:none;stroke:#000000;stroke-linejoin:miter;"/>
   </g>
   <g id="patch_45">
    <path clip-path="url(#p0a392b7327)" d="M 217.539306 282.746182 
C 220.664396 282.746182 223.66191 281.504571 225.871682 279.294799 
C 228.081454 277.085027 229.323065 274.087512 229.323065 270.962423 
C 229.323065 267.837333 228.081454 264.839819 225.871682 262.630047 
C 223.66191 260.420275 220.664396 259.178663 217.539306 259.178663 
C 214.414217 259.178663 211.416702 260.420275 209.20693 262.630047 
C 206.997158 264.839819 205.755547 267.837333 205.755547 270.962423 
C 205.755547 274.087512 206.997158 277.085027 209.20693 279.294799 
C 211.416702 281.504571 214.414217 282.746182 217.539306 282.746182 
z
" style="fill:none;stroke:#000000;stroke-linejoin:miter;"/>
   </g>
   <g id="patch_46">
    <path clip-path="url(#p0a392b7327)" d="M 217.252906 259.181122 
C 218.55269 259.181122 219.799413 258.664712 220.718498 257.745627 
C 221.637584 256.826541 222.153993 255.579818 222.153993 254.280035 
C 222.153993 252.980251 221.637584 251.733529 220.718498 250.814443 
C 219.799413 249.895357 218.55269 249.378948 217.252906 249.378948 
C 215.953123 249.378948 214.7064 249.895357 213.787315 250.814443 
C 212.868229 251.733529 212.35182 252.980251 212.35182 254.280035 
C 212.35182 255.579818 212.868229 256.826541 213.787315 257.745627 
C 214.7064 258.664712 215.953123 259.181122 217.252906 259.181122 
z
" style="fill:none;stroke:#000000;stroke-linejoin:miter;"/>
   </g>
   <g id="patch_47">
    <path clip-path="url(#p0a392b7327)" d="M 202.340197 282.746182 
C 203.639981 282.746182 204.886703 282.229772 205.805789 281.310687 
C 206.724875 280.391601 207.241284 279.144878 207.241284 277.845095 
C 207.241284 276.545311 206.724875 275.298589 205.805789 274.379503 
C 204.886703 273.460417 203.639981 272.944008 202.340197 272.944008 
C 201.040414 272.944008 199.793691 273.460417 198.874605 274.379503 
C 197.95552 275.298589 197.43911 276.545311 197.43911 277.845095 
C 197.43911 279.144878 197.95552 280.391601 198.874605 281.310687 
C 199.793691 282.229772 201.040414 282.746182 202.340197 282.746182 
z
" style="fill:none;stroke:#000000;stroke-linejoin:miter;"/>
   </g>
   <g id="patch_48">
    <path clip-path="url(#p0a392b7327)" d="M 184.24305 205.939804 
C 186.850268 205.939804 189.351052 204.903946 191.194634 203.060364 
C 193.038215 201.216783 194.074074 198.715999 194.074074 196.108781 
C 194.074074 193.501563 193.038215 191.000779 191.194634 189.157197 
C 189.351052 187.313615 186.850268 186.277757 184.24305 186.277757 
C 181.635832 186.277757 179.135048 187.313615 177.291466 189.157197 
C 175.447885 191.000779 174.412026 193.501563 174.412026 196.108781 
C 174.412026 198.715999 175.447885 201.216783 177.291466 203.060364 
C 179.135048 204.903946 181.635832 205.939804 184.24305 205.939804 
z
" style="fill:none;stroke:#000000;stroke-linejoin:miter;"/>
   </g>
   <g id="patch_49">
    <path clip-path="url(#p0a392b7327)" d="M 170.866117 205.176128 
C 172.020412 205.176128 173.127585 204.717522 173.943795 203.901312 
C 174.760005 203.085102 175.218611 201.977929 175.218611 200.823634 
C 175.218611 199.669339 174.760005 198.562166 173.943795 197.745956 
C 173.127585 196.929746 172.020412 196.47114 170.866117 196.47114 
C 169.711822 196.47114 168.604649 196.929746 167.788439 197.745956 
C 166.972229 198.562166 166.513623 199.669339 166.513623 200.823634 
C 166.513623 201.977929 166.972229 203.085102 167.788439 203.901312 
C 168.604649 204.717522 169.711822 205.176128 170.866117 205.176128 
z
" style="fill:none;stroke:#000000;stroke-linejoin:miter;"/>
   </g>
   <g id="patch_50">
    <path clip-path="url(#p0a392b7327)" d="M 194.794744 209.939351 
C 195.949039 209.939351 197.056212 209.480745 197.872422 208.664535 
C 198.688632 207.848325 199.147238 206.741152 199.147238 205.586857 
C 199.147238 204.432562 198.688632 203.325389 197.872422 202.509179 
C 197.056212 201.692969 195.949039 201.234363 194.794744 201.234363 
C 193.640449 201.234363 192.533276 201.692969 191.717066 202.509179 
C 190.900856 203.325389 190.44225 204.432562 190.44225 205.586857 
C 190.44225 206.741152 190.900856 207.848325 191.717066 208.664535 
C 192.533276 209.480745 193.640449 209.939351 194.794744 209.939351 
z
" style="fill:none;stroke:#000000;stroke-linejoin:miter;"/>
   </g>
   <g id="patch_51">
    <path clip-path="url(#p0a392b7327)" d="M 151.410794 130.577593 
C 159.932801 130.577593 168.106915 127.191764 174.132884 121.165795 
C 180.158853 115.139827 183.544682 106.965712 183.544682 98.443706 
C 183.544682 89.921699 180.158853 81.747585 174.132884 75.721616 
C 168.106915 69.695647 159.932801 66.309818 151.410794 66.309818 
C 142.888788 66.309818 134.714673 69.695647 128.688705 75.721616 
C 122.662736 81.747585 119.276907 89.921699 119.276907 98.443706 
C 119.276907 106.965712 122.662736 115.139827 128.688705 121.165795 
C 134.714673 127.191764 142.888788 130.577593 151.410794 130.577593 
z
" style="fill:none;stroke:#000000;stroke-linejoin:miter;"/>
   </g>
   <g id="patch_52">
    <path clip-path="url(#p0a392b7327)" d="M 108.46844 95.002982 
C 112.273198 95.002982 115.922635 93.491336 118.613005 90.800965 
C 121.303376 88.110595 122.815022 84.461158 122.815022 80.6564 
C 122.815022 76.851642 121.303376 73.202205 118.613005 70.511835 
C 115.922635 67.821465 112.273198 66.309818 108.46844 66.309818 
C 104.663682 66.309818 101.014245 67.821465 98.323875 70.511835 
C 95.633504 73.202205 94.121858 76.851642 94.121858 80.6564 
C 94.121858 84.461158 95.633504 88.110595 98.323875 90.800965 
C 101.014245 93.491336 104.663682 95.002982 108.46844 95.002982 
z
" style="fill:none;stroke:#000000;stroke-linejoin:miter;"/>
   </g>
   <g id="patch_53">
    <path clip-path="url(#p0a392b7327)" d="M 114.131746 104.473395 
C 115.498977 104.473395 116.810394 103.930189 117.777172 102.96341 
C 118.743951 101.996632 119.287157 100.685215 119.287157 99.317984 
C 119.287157 97.950753 118.743951 96.639336 117.777172 95.672558 
C 116.810394 94.705779 115.498977 94.162573 114.131746 94.162573 
C 112.764515 94.162573 111.453098 94.705779 110.486319 95.672558 
C 109.519541 96.639336 108.976334 97.950753 108.976334 99.317984 
C 108.976334 100.685215 109.519541 101.996632 110.486319 102.96341 
C 111.453098 103.930189 112.764515 104.473395 114.131746 104.473395 
z
" style="fill:none;stroke:#000000;stroke-linejoin:miter;"/>
   </g>
   <g id="patch_54">
    <path clip-path="url(#p0a392b7327)" d="M 125.668734 76.620641 
C 127.035966 76.620641 128.347382 76.077434 129.314161 75.110656 
C 130.280939 74.143878 130.824146 72.832461 130.824146 71.46523 
C 130.824146 70.097999 130.280939 68.786582 129.314161 67.819803 
C 128.347382 66.853025 127.035966 66.309818 125.668734 66.309818 
C 124.301503 66.309818 122.990086 66.853025 122.023308 67.819803 
C 121.05653 68.786582 120.513323 70.097999 120.513323 71.46523 
C 120.513323 72.832461 121.05653 74.143878 122.023308 75.110656 
C 122.990086 76.077434 124.301503 76.620641 125.668734 76.620641 
z
" style="fill:none;stroke:#000000;stroke-linejoin:miter;"/>
   </g>
   <g id="patch_55">
    <path clip-path="url(#p0a392b7327)" d="M 89.296281 79.120245 
C 90.994963 79.120245 92.624301 78.445352 93.825451 77.244202 
C 95.026601 76.043052 95.701494 74.413714 95.701494 72.715032 
C 95.701494 71.016349 95.026601 69.387012 93.825451 68.185862 
C 92.624301 66.984712 90.994963 66.309818 89.296281 66.309818 
C 87.597598 66.309818 85.968261 66.984712 84.767111 68.185862 
C 83.565961 69.387012 82.891067 71.016349 82.891067 72.715032 
C 82.891067 74.413714 83.565961 76.043052 84.767111 77.244202 
C 85.968261 78.445352 87.597598 79.120245 89.296281 79.120245 
z
" style="fill:none;stroke:#000000;stroke-linejoin:miter;"/>
   </g>
   <g id="patch_56">
    <path clip-path="url(#p0a392b7327)" d="M 91.824736 83.348432 
C 92.435153 83.348432 93.020652 83.10591 93.452282 82.67428 
C 93.883913 82.242649 94.126434 81.65715 94.126434 81.046733 
C 94.126434 80.436315 93.883913 79.850816 93.452282 79.419186 
C 93.020652 78.987555 92.435153 78.745034 91.824736 78.745034 
C 91.214318 78.745034 90.628819 78.987555 90.197189 79.419186 
C 89.765558 79.850816 89.523037 80.436315 89.523037 81.046733 
C 89.523037 81.65715 89.765558 82.242649 90.197189 82.67428 
C 90.628819 83.10591 91.214318 83.348432 91.824736 83.348432 
z
" style="fill:none;stroke:#000000;stroke-linejoin:miter;"/>
   </g>
   <g id="patch_57">
    <path clip-path="url(#p0a392b7327)" d="M 96.975571 70.913216 
C 97.585988 70.913216 98.171487 70.670694 98.603117 70.239064 
C 99.034748 69.807433 99.277269 69.221935 99.277269 68.611517 
C 99.277269 68.001099 99.034748 67.415601 98.603117 66.98397 
C 98.171487 66.55234 97.585988 66.309818 96.975571 66.309818 
C 96.365153 66.309818 95.779654 66.55234 95.348024 66.98397 
C 94.916393 67.415601 94.673872 68.001099 94.673872 68.611517 
C 94.673872 69.221935 94.916393 69.807433 95.348024 70.239064 
C 95.779654 70.670694 96.365153 70.913216 96.975571 70.913216 
z
" style="fill:none;stroke:#000000;stroke-linejoin:miter;"/>
   </g>
   <g id="patch_58">
    <path clip-path="url(#p0a392b7327)" d="M 170.51988 156.741888 
C 174.52474 156.741888 178.366111 155.150741 181.197975 152.318877 
C 184.029838 149.487013 185.620986 145.645643 185.620986 141.640782 
C 185.620986 137.635922 184.029838 133.794552 181.197975 130.962688 
C 178.366111 128.130824 174.52474 126.539677 170.51988 126.539677 
C 166.51502 126.539677 162.67365 128.130824 159.841786 130.962688 
C 157.009922 133.794552 155.418774 137.635922 155.418774 141.640782 
C 155.418774 145.645643 157.009922 149.487013 159.841786 152.318877 
C 162.67365 155.150741 166.51502 156.741888 170.51988 156.741888 
z
" style="fill:none;stroke:#000000;stroke-linejoin:miter;"/>
   </g>
   <g id="patch_59">
    <path clip-path="url(#p0a392b7327)" d="M 179.442175 128.592454 
C 180.851845 128.592454 182.203968 128.032386 183.200755 127.035599 
C 184.197542 126.038812 184.75761 124.686689 184.75761 123.277019 
C 184.75761 121.867349 184.197542 120.515226 183.200755 119.518439 
C 182.203968 118.521652 180.851845 117.961584 179.442175 117.961584 
C 178.032505 117.961584 176.680382 118.521652 175.683595 119.518439 
C 174.686808 120.515226 174.12674 121.867349 174.12674 123.277019 
C 174.12674 124.686689 174.686808 126.038812 175.683595 127.035599 
C 176.680382 128.032386 178.032505 128.592454 179.442175 128.592454 
z
" style="fill:none;stroke:#000000;stroke-linejoin:miter;"/>
   </g>
   <g id="patch_60">
    <path clip-path="url(#p0a392b7327)" d="M 150.930011 141.205377 
C 152.339681 141.205377 153.691804 140.645309 154.688591 139.648522 
C 155.685378 138.651735 156.245446 137.299612 156.245446 135.889942 
C 156.245446 134.480272 155.685378 133.128149 154.688591 132.131362 
C 153.691804 131.134575 152.339681 130.574507 150.930011 130.574507 
C 149.520341 130.574507 148.168218 131.134575 147.171431 132.131362 
C 146.174644 133.128149 145.614576 134.480272 145.614576 135.889942 
C 145.614576 137.299612 146.174644 138.651735 147.171431 139.648522 
C 148.168218 140.645309 149.520341 141.205377 150.930011 141.205377 
z
" style="fill:none;stroke:#000000;stroke-linejoin:miter;"/>
   </g>
   <g id="patch_61">
    <path clip-path="url(#p0a392b7327)" d="M 179.500068 169.037624 
C 181.382125 169.037624 183.187351 168.289875 184.518167 166.959059 
C 185.848982 165.628244 186.596731 163.823017 186.596731 161.94096 
C 186.596731 160.058903 185.848982 158.253676 184.518167 156.922861 
C 183.187351 155.592046 181.382125 154.844296 179.500068 154.844296 
C 177.61801 154.844296 175.812784 155.592046 174.481968 156.922861 
C 173.151153 158.253676 172.403404 160.058903 172.403404 161.94096 
C 172.403404 163.823017 173.151153 165.628244 174.481968 166.959059 
C 175.812784 168.289875 177.61801 169.037624 179.500068 169.037624 
z
" style="fill:none;stroke:#000000;stroke-linejoin:miter;"/>
   </g>
   <g id="patch_62">
    <path clip-path="url(#p0a392b7327)" d="M 183.69304 155.808985 
C 184.355505 155.808985 184.990927 155.545785 185.45936 155.077352 
C 185.927793 154.608918 186.190994 153.973497 186.190994 153.311032 
C 186.190994 152.648567 185.927793 152.013146 185.45936 151.544713 
C 184.990927 151.076279 184.355505 150.813079 183.69304 150.813079 
C 183.030575 150.813079 182.395154 151.076279 181.926721 151.544713 
C 181.458287 152.013146 181.195087 152.648567 181.195087 153.311032 
C 181.195087 153.973497 181.458287 154.608918 181.926721 155.077352 
C 182.395154 155.545785 183.030575 155.808985 183.69304 155.808985 
z
" style="fill:none;stroke:#000000;stroke-linejoin:miter;"/>
   </g>
   <g id="patch_63">
    <path clip-path="url(#p0a392b7327)" d="M 170.293939 161.736344 
C 170.956404 161.736344 171.591826 161.473144 172.060259 161.004711 
C 172.528692 160.536277 172.791893 159.900856 172.791893 159.238391 
C 172.791893 158.575926 172.528692 157.940505 172.060259 157.472071 
C 171.591826 157.003638 170.956404 156.740438 170.293939 156.740438 
C 169.631474 156.740438 168.996053 157.003638 168.52762 157.472071 
C 168.059186 157.940505 167.795986 158.575926 167.795986 159.238391 
C 167.795986 159.900856 168.059186 160.536277 168.52762 161.004711 
C 168.996053 161.473144 169.631474 161.736344 170.293939 161.736344 
z
" style="fill:none;stroke:#000000;stroke-linejoin:miter;"/>
   </g>
   <g id="patch_64">
    <path clip-path="url(#p0a392b7327)" d="M 177.140043 76.610381 
C 178.505914 76.610381 179.816026 76.067715 180.781842 75.101898 
C 181.747658 74.136082 182.290325 72.82597 182.290325 71.4601 
C 182.290325 70.094229 181.747658 68.784117 180.781842 67.818301 
C 179.816026 66.852484 178.505914 66.309818 177.140043 66.309818 
C 175.774173 66.309818 174.464061 66.852484 173.498244 67.818301 
C 172.532428 68.784117 171.989762 70.094229 171.989762 71.4601 
C 171.989762 72.82597 172.532428 74.136082 173.498244 75.101898 
C 174.464061 76.067715 175.774173 76.610381 177.140043 76.610381 
z
" style="fill:none;stroke:#000000;stroke-linejoin:miter;"/>
   </g>
   <g id="patch_65">
    <path clip-path="url(#p0a392b7327)" d="M 169.784308 71.562622 
C 170.480838 71.562622 171.148934 71.285888 171.641455 70.793367 
C 172.133976 70.300846 172.41071 69.63275 172.41071 68.93622 
C 172.41071 68.23969 172.133976 67.571595 171.641455 67.079073 
C 171.148934 66.586552 170.480838 66.309818 169.784308 66.309818 
C 169.087778 66.309818 168.419683 66.586552 167.927162 67.079073 
C 167.434641 67.571595 167.157906 68.23969 167.157906 68.93622 
C 167.157906 69.63275 167.434641 70.300846 167.927162 70.793367 
C 168.419683 71.285888 169.087778 71.562622 169.784308 71.562622 
z
" style="fill:none;stroke:#000000;stroke-linejoin:miter;"/>
   </g>
   <g id="patch_66">
    <path clip-path="url(#p0a392b7327)" d="M 180.010943 81.313862 
C 180.707473 81.313862 181.375568 81.037128 181.868089 80.544607 
C 182.36061 80.052086 182.637345 79.38399 182.637345 78.68746 
C 182.637345 77.99093 182.36061 77.322834 181.868089 76.830313 
C 181.375568 76.337792 180.707473 76.061058 180.010943 76.061058 
C 179.314413 76.061058 178.646317 76.337792 178.153796 76.830313 
C 177.661275 77.322834 177.384541 77.99093 177.384541 78.68746 
C 177.384541 79.38399 177.661275 80.052086 178.153796 80.544607 
C 178.646317 81.037128 179.314413 81.313862 180.010943 81.313862 
z
" style="fill:none;stroke:#000000;stroke-linejoin:miter;"/>
   </g>
   <g id="patch_67">
    <path clip-path="url(#p0a392b7327)" d="M 377.819439 269.972758 
C 383.300613 269.972758 388.558029 267.795065 392.433804 263.91929 
C 396.309579 260.043515 398.487273 254.786098 398.487273 249.304925 
C 398.487273 243.823751 396.309579 238.566334 392.433804 234.690559 
C 388.558029 230.814784 383.300613 228.637091 377.819439 228.637091 
C 372.338266 228.637091 367.080849 230.814784 363.205074 234.690559 
C 359.329299 238.566334 357.151605 243.823751 357.151605 249.304925 
C 357.151605 254.786098 359.329299 260.043515 363.205074 263.91929 
C 367.080849 267.795065 372.338266 269.972758 377.819439 269.972758 
z
" style="fill:none;stroke:#000000;stroke-linejoin:miter;"/>
   </g>
   <g id="patch_68">
    <path clip-path="url(#p0a392b7327)" d="M 345.105635 254.527395 
C 348.538729 254.527395 351.831675 253.163412 354.25924 250.735848 
C 356.686804 248.308283 358.050787 245.015337 358.050787 241.582243 
C 358.050787 238.149148 356.686804 234.856203 354.25924 232.428638 
C 351.831675 230.001074 348.538729 228.637091 345.105635 228.637091 
C 341.67254 228.637091 338.379594 230.001074 335.95203 232.428638 
C 333.524466 234.856203 332.160483 238.149148 332.160483 241.582243 
C 332.160483 245.015337 333.524466 248.308283 335.95203 250.735848 
C 338.379594 253.163412 341.67254 254.527395 345.105635 254.527395 
z
" style="fill:none;stroke:#000000;stroke-linejoin:miter;"/>
   </g>
   <g id="patch_69">
    <path clip-path="url(#p0a392b7327)" d="M 354.046976 260.049909 
C 355.11675 260.049909 356.142852 259.624884 356.899296 258.86844 
C 357.65574 258.111996 358.080765 257.085894 358.080765 256.016121 
C 358.080765 254.946348 357.65574 253.920246 356.899296 253.163802 
C 356.142852 252.407358 355.11675 251.982332 354.046976 251.982332 
C 352.977203 251.982332 351.951101 252.407358 351.194657 253.163802 
C 350.438213 253.920246 350.013188 254.946348 350.013188 256.016121 
C 350.013188 257.085894 350.438213 258.111996 351.194657 258.86844 
C 351.951101 259.624884 352.977203 260.049909 354.046976 260.049909 
z
" style="fill:none;stroke:#000000;stroke-linejoin:miter;"/>
   </g>
   <g id="patch_70">
    <path clip-path="url(#p0a392b7327)" d="M 359.55804 236.704668 
C 360.627814 236.704668 361.653916 236.279643 362.41036 235.523199 
C 363.166803 234.766755 363.591829 233.740653 363.591829 232.670879 
C 363.591829 231.601106 363.166803 230.575004 362.41036 229.81856 
C 361.653916 229.062116 360.627814 228.637091 359.55804 228.637091 
C 358.488267 228.637091 357.462165 229.062116 356.705721 229.81856 
C 355.949277 230.575004 355.524252 231.601106 355.524252 232.670879 
C 355.524252 233.740653 355.949277 234.766755 356.705721 235.523199 
C 357.462165 236.279643 358.488267 236.704668 359.55804 236.704668 
z
" style="fill:none;stroke:#000000;stroke-linejoin:miter;"/>
   </g>
   <g id="patch_71">
    <path clip-path="url(#p0a392b7327)" d="M 324.615574 244.8533 
C 326.765868 244.8533 328.828382 243.998979 330.34887 242.478492 
C 331.869358 240.958004 332.723679 238.89549 332.723679 236.745196 
C 332.723679 234.594901 331.869358 232.532388 330.34887 231.0119 
C 328.828382 229.491412 326.765868 228.637091 324.615574 228.637091 
C 322.465279 228.637091 320.402766 229.491412 318.882278 231.0119 
C 317.36179 232.532388 316.507469 234.594901 316.507469 236.745196 
C 316.507469 238.89549 317.36179 240.958004 318.882278 242.478492 
C 320.402766 243.998979 322.465279 244.8533 324.615574 244.8533 
z
" style="fill:none;stroke:#000000;stroke-linejoin:miter;"/>
   </g>
   <g id="patch_72">
    <path clip-path="url(#p0a392b7327)" d="M 330.21592 248.312289 
C 330.885965 248.312289 331.528657 248.046077 332.00245 247.572284 
C 332.476244 247.09849 332.742455 246.455798 332.742455 245.785753 
C 332.742455 245.115709 332.476244 244.473017 332.00245 243.999223 
C 331.528657 243.52543 330.885965 243.259218 330.21592 243.259218 
C 329.545875 243.259218 328.903183 243.52543 328.42939 243.999223 
C 327.955597 244.473017 327.689385 245.115709 327.689385 245.785753 
C 327.689385 246.455798 327.955597 247.09849 328.42939 247.572284 
C 328.903183 248.046077 329.545875 248.312289 330.21592 248.312289 
z
" style="fill:none;stroke:#000000;stroke-linejoin:miter;"/>
   </g>
   <g id="patch_73">
    <path clip-path="url(#p0a392b7327)" d="M 333.667736 233.690161 
C 334.337781 233.690161 334.980473 233.423949 335.454266 232.950156 
C 335.92806 232.476363 336.194271 231.833671 336.194271 231.163626 
C 336.194271 230.493581 335.92806 229.850889 335.454266 229.377096 
C 334.980473 228.903303 334.337781 228.637091 333.667736 228.637091 
C 332.997691 228.637091 332.355 228.903303 331.881206 229.377096 
C 331.407413 229.850889 331.141201 230.493581 331.141201 231.163626 
C 331.141201 231.833671 331.407413 232.476363 331.881206 232.950156 
C 332.355 233.423949 332.997691 233.690161 333.667736 233.690161 
z
" style="fill:none;stroke:#000000;stroke-linejoin:miter;"/>
   </g>
   <g id="patch_74">
    <path clip-path="url(#p0a392b7327)" d="M 311.781769 238.794 
C 313.12859 238.794 314.420431 238.258902 315.372778 237.306555 
C 316.325125 236.354208 316.860223 235.062367 316.860223 233.715545 
C 316.860223 232.368723 316.325125 231.076883 315.372778 230.124536 
C 314.420431 229.172189 313.12859 228.637091 311.781769 228.637091 
C 310.434947 228.637091 309.143106 229.172189 308.190759 230.124536 
C 307.238412 231.076883 306.703314 232.368723 306.703314 233.715545 
C 306.703314 235.062367 307.238412 236.354208 308.190759 237.306555 
C 309.143106 238.258902 310.434947 238.794 311.781769 238.794 
z
" style="fill:none;stroke:#000000;stroke-linejoin:miter;"/>
   </g>
   <g id="patch_75">
    <path clip-path="url(#p0a392b7327)" d="M 315.289506 240.960512 
C 315.709184 240.960512 316.111729 240.793773 316.408487 240.497015 
C 316.705244 240.200258 316.871984 239.797713 316.871984 239.378035 
C 316.871984 238.958357 316.705244 238.555812 316.408487 238.259054 
C 316.111729 237.962297 315.709184 237.795557 315.289506 237.795557 
C 314.869828 237.795557 314.467283 237.962297 314.170526 238.259054 
C 313.873768 238.555812 313.707029 238.958357 313.707029 239.378035 
C 313.707029 239.797713 313.873768 240.200258 314.170526 240.497015 
C 314.467283 240.793773 314.869828 240.960512 315.289506 240.960512 
z
" style="fill:none;stroke:#000000;stroke-linejoin:miter;"/>
   </g>
   <g id="patch_76">
    <path clip-path="url(#p0a392b7327)" d="M 317.451527 231.802046 
C 317.871205 231.802046 318.27375 231.635306 318.570507 231.338549 
C 318.867264 231.041792 319.034004 230.639246 319.034004 230.219568 
C 319.034004 229.79989 318.867264 229.397345 318.570507 229.100588 
C 318.27375 228.803831 317.871205 228.637091 317.451527 228.637091 
C 317.031849 228.637091 316.629303 228.803831 316.332546 229.100588 
C 316.035789 229.397345 315.869049 229.79989 315.869049 230.219568 
C 315.869049 230.639246 316.035789 231.041792 316.332546 231.338549 
C 316.629303 231.635306 317.031849 231.802046 317.451527 231.802046 
z
" style="fill:none;stroke:#000000;stroke-linejoin:miter;"/>
   </g>
   <g id="patch_77">
    <path clip-path="url(#p0a392b7327)" d="M 392.062739 278.775602 
C 393.766546 278.775602 395.400798 278.098672 396.60557 276.8939 
C 397.810343 275.689127 398.487273 274.054875 398.487273 272.351068 
C 398.487273 270.647262 397.810343 269.01301 396.60557 267.808237 
C 395.400798 266.603464 393.766546 265.926535 392.062739 265.926535 
C 390.358933 265.926535 388.724681 266.603464 387.519908 267.808237 
C 386.315135 269.01301 385.638206 270.647262 385.638206 272.351068 
C 385.638206 274.054875 386.315135 275.689127 387.519908 276.8939 
C 388.724681 278.098672 390.358933 278.775602 392.062739 278.775602 
z
" style="fill:none;stroke:#000000;stroke-linejoin:miter;"/>
   </g>
   <g id="patch_78">
    <path clip-path="url(#p0a392b7327)" d="M 395.838985 266.749747 
C 396.541319 266.749747 397.214982 266.470707 397.711607 265.974082 
C 398.208232 265.477457 398.487273 264.803794 398.487273 264.10146 
C 398.487273 263.399126 398.208232 262.725463 397.711607 262.228838 
C 397.214982 261.732213 396.541319 261.453172 395.838985 261.453172 
C 395.136651 261.453172 394.462988 261.732213 393.966363 262.228838 
C 393.469738 262.725463 393.190698 263.399126 393.190698 264.10146 
C 393.190698 264.803794 393.469738 265.477457 393.966363 265.974082 
C 394.462988 266.470707 395.136651 266.749747 395.838985 266.749747 
z
" style="fill:none;stroke:#000000;stroke-linejoin:miter;"/>
   </g>
   <g id="patch_79">
    <path clip-path="url(#p0a392b7327)" d="M 382.995276 274.687596 
C 383.697611 274.687596 384.371273 274.408555 384.867898 273.91193 
C 385.364524 273.415305 385.643564 272.741642 385.643564 272.039308 
C 385.643564 271.336974 385.364524 270.663312 384.867898 270.166686 
C 384.371273 269.670061 383.697611 269.391021 382.995276 269.391021 
C 382.292942 269.391021 381.61928 269.670061 381.122654 270.166686 
C 380.626029 270.663312 380.346989 271.336974 380.346989 272.039308 
C 380.346989 272.741642 380.626029 273.415305 381.122654 273.91193 
C 381.61928 274.408555 382.292942 274.687596 382.995276 274.687596 
z
" style="fill:none;stroke:#000000;stroke-linejoin:miter;"/>
   </g>
   <g id="patch_80">
    <path clip-path="url(#p0a392b7327)" d="M 295.088739 282.746182 
C 301.562103 282.746182 307.771207 280.174287 312.348567 275.596927 
C 316.925927 271.019567 319.497822 264.810463 319.497822 258.337099 
C 319.497822 251.863735 316.925927 245.654631 312.348567 241.077271 
C 307.771207 236.499911 301.562103 233.928016 295.088739 233.928016 
C 288.615374 233.928016 282.406271 236.499911 277.828911 241.077271 
C 273.251551 245.654631 270.679656 251.863735 270.679656 258.337099 
C 270.679656 264.810463 273.251551 271.019567 277.828911 275.596927 
C 282.406271 280.174287 288.615374 282.746182 295.088739 282.746182 
z
" style="fill:none;stroke:#000000;stroke-linejoin:miter;"/>
   </g>
   <g id="patch_81">
    <path clip-path="url(#p0a392b7327)" d="M 333.724329 282.746182 
C 337.778876 282.746182 341.667904 281.135294 344.534901 278.268296 
C 347.401898 275.401299 349.012786 271.512271 349.012786 267.457725 
C 349.012786 263.403179 347.401898 259.51415 344.534901 256.647153 
C 341.667904 253.780156 337.778876 252.169268 333.724329 252.169268 
C 329.669783 252.169268 325.780755 253.780156 322.913758 256.647153 
C 320.046761 259.51415 318.435872 263.403179 318.435872 267.457725 
C 318.435872 271.512271 320.046761 275.401299 322.913758 278.268296 
C 325.780755 281.135294 329.669783 282.746182 333.724329 282.746182 
z
" style="fill:none;stroke:#000000;stroke-linejoin:miter;"/>
   </g>
   <g id="patch_82">
    <path clip-path="url(#p0a392b7327)" d="M 323.164444 255.175032 
C 324.427866 255.175032 325.639711 254.67307 326.533085 253.779696 
C 327.426458 252.886322 327.928421 251.674477 327.928421 250.411056 
C 327.928421 249.147634 327.426458 247.935789 326.533085 247.042415 
C 325.639711 246.149041 324.427866 245.647079 323.164444 245.647079 
C 321.901023 245.647079 320.689178 246.149041 319.795804 247.042415 
C 318.90243 247.935789 318.400467 249.147634 318.400467 250.411056 
C 318.400467 251.674477 318.90243 252.886322 319.795804 253.779696 
C 320.689178 254.67307 321.901023 255.175032 323.164444 255.175032 
z
" style="fill:none;stroke:#000000;stroke-linejoin:miter;"/>
   </g>
   <g id="patch_83">
    <path clip-path="url(#p0a392b7327)" d="M 316.655779 282.746182 
C 317.9192 282.746182 319.131045 282.244219 320.024419 281.350845 
C 320.917793 280.457471 321.419756 279.245626 321.419756 277.982205 
C 321.419756 276.718784 320.917793 275.506939 320.024419 274.613565 
C 319.131045 273.720191 317.9192 273.218228 316.655779 273.218228 
C 315.392357 273.218228 314.180512 273.720191 313.287138 274.613565 
C 312.393765 275.506939 311.891802 276.718784 311.891802 277.982205 
C 311.891802 279.245626 312.393765 280.457471 313.287138 281.350845 
C 314.180512 282.244219 315.392357 282.746182 316.655779 282.746182 
z
" style="fill:none;stroke:#000000;stroke-linejoin:miter;"/>
   </g>
   <g id="patch_84">
    <path clip-path="url(#p0a392b7327)" d="M 357.923459 282.746182 
C 360.462996 282.746182 362.898861 281.737213 364.694585 279.94149 
C 366.490308 278.145766 367.499277 275.709901 367.499277 273.170364 
C 367.499277 270.630828 366.490308 268.194962 364.694585 266.399239 
C 362.898861 264.603516 360.462996 263.594547 357.923459 263.594547 
C 355.383923 263.594547 352.948057 264.603516 351.152334 266.399239 
C 349.35661 268.194962 348.347642 270.630828 348.347642 273.170364 
C 348.347642 275.709901 349.35661 278.145766 351.152334 279.94149 
C 352.948057 281.737213 355.383923 282.746182 357.923459 282.746182 
z
" style="fill:none;stroke:#000000;stroke-linejoin:miter;"/>
   </g>
   <g id="patch_85">
    <path clip-path="url(#p0a392b7327)" d="M 351.30935 265.477187 
C 352.100685 265.477187 352.859715 265.162786 353.419274 264.603227 
C 353.978832 264.043669 354.293233 263.284638 354.293233 262.493303 
C 354.293233 261.701968 353.978832 260.942938 353.419274 260.383379 
C 352.859715 259.823821 352.100685 259.50942 351.30935 259.50942 
C 350.518015 259.50942 349.758984 259.823821 349.199426 260.383379 
C 348.639867 260.942938 348.325466 261.701968 348.325466 262.493303 
C 348.325466 263.284638 348.639867 264.043669 349.199426 264.603227 
C 349.758984 265.162786 350.518015 265.477187 351.30935 265.477187 
z
" style="fill:none;stroke:#000000;stroke-linejoin:miter;"/>
   </g>
   <g id="patch_86">
    <path clip-path="url(#p0a392b7327)" d="M 347.232693 282.746182 
C 348.024028 282.746182 348.783059 282.431781 349.342617 281.872223 
C 349.902175 281.312664 350.216576 280.553634 350.216576 279.762299 
C 350.216576 278.970963 349.902175 278.211933 349.342617 277.652374 
C 348.783059 277.092816 348.024028 276.778415 347.232693 276.778415 
C 346.441358 276.778415 345.682327 277.092816 345.122769 277.652374 
C 344.56321 278.211933 344.24881 278.970963 344.24881 279.762299 
C 344.24881 280.553634 344.56321 281.312664 345.122769 281.872223 
C 345.682327 282.431781 346.441358 282.746182 347.232693 282.746182 
z
" style="fill:none;stroke:#000000;stroke-linejoin:miter;"/>
   </g>
   <g id="patch_87">
    <path clip-path="url(#p0a392b7327)" d="M 373.080414 282.746182 
C 374.671035 282.746182 376.196722 282.114221 377.321461 280.989483 
C 378.446199 279.864744 379.07816 278.339057 379.07816 276.748436 
C 379.07816 275.157815 378.446199 273.632128 377.321461 272.507389 
C 376.196722 271.382651 374.671035 270.75069 373.080414 270.75069 
C 371.489793 270.75069 369.964106 271.382651 368.839367 272.507389 
C 367.714628 273.632128 367.082668 275.157815 367.082668 276.748436 
C 367.082668 278.339057 367.714628 279.864744 368.839367 280.989483 
C 369.964106 282.114221 371.489793 282.746182 373.080414 282.746182 
z
" style="fill:none;stroke:#000000;stroke-linejoin:miter;"/>
   </g>
   <g id="patch_88">
    <path clip-path="url(#p0a392b7327)" d="M 368.937713 271.929868 
C 369.43336 271.929868 369.908774 271.732946 370.259249 271.38247 
C 370.609725 271.031995 370.806647 270.556581 370.806647 270.060934 
C 370.806647 269.565287 370.609725 269.089873 370.259249 268.739398 
C 369.908774 268.388922 369.43336 268.192 368.937713 268.192 
C 368.442066 268.192 367.966652 268.388922 367.616177 268.739398 
C 367.265701 269.089873 367.068779 269.565287 367.068779 270.060934 
C 367.068779 270.556581 367.265701 271.031995 367.616177 271.38247 
C 367.966652 271.732946 368.442066 271.929868 368.937713 271.929868 
z
" style="fill:none;stroke:#000000;stroke-linejoin:miter;"/>
   </g>
   <g id="patch_89">
    <path clip-path="url(#p0a392b7327)" d="M 366.384328 282.746182 
C 366.879975 282.746182 367.355388 282.549259 367.705864 282.198784 
C 368.056339 281.848308 368.253262 281.372895 368.253262 280.877248 
C 368.253262 280.3816 368.056339 279.906187 367.705864 279.555711 
C 367.355388 279.205236 366.879975 279.008313 366.384328 279.008313 
C 365.888681 279.008313 365.413267 279.205236 365.062792 279.555711 
C 364.712316 279.906187 364.515393 280.3816 364.515393 280.877248 
C 364.515393 281.372895 364.712316 281.848308 365.062792 282.198784 
C 365.413267 282.549259 365.888681 282.746182 366.384328 282.746182 
z
" style="fill:none;stroke:#000000;stroke-linejoin:miter;"/>
   </g>
   <g id="patch_90">
    <path clip-path="url(#p0a392b7327)" d="M 262.469483 282.746182 
C 265.359599 282.746182 268.131732 281.597927 270.175353 279.554306 
C 272.218973 277.510686 273.367228 274.738553 273.367228 271.848437 
C 273.367228 268.958321 272.218973 266.186188 270.175353 264.142568 
C 268.131732 262.098947 265.359599 260.950692 262.469483 260.950692 
C 259.579368 260.950692 256.807234 262.098947 254.763614 264.142568 
C 252.719994 266.186188 251.571739 268.958321 251.571739 271.848437 
C 251.571739 274.738553 252.719994 277.510686 254.763614 279.554306 
C 256.807234 281.597927 259.579368 282.746182 262.469483 282.746182 
z
" style="fill:none;stroke:#000000;stroke-linejoin:miter;"/>
   </g>
   <g id="patch_91">
    <path clip-path="url(#p0a392b7327)" d="M 275.534924 282.746182 
C 276.573481 282.746182 277.569641 282.333559 278.304011 281.599189 
C 279.038381 280.864818 279.451004 279.868659 279.451004 278.830102 
C 279.451004 277.791546 279.038381 276.795386 278.304011 276.061016 
C 277.569641 275.326645 276.573481 274.914022 275.534924 274.914022 
C 274.496368 274.914022 273.500208 275.326645 272.765838 276.061016 
C 272.031468 276.795386 271.618845 277.791546 271.618845 278.830102 
C 271.618845 279.868659 272.031468 280.864818 272.765838 281.599189 
C 273.500208 282.333559 274.496368 282.746182 275.534924 282.746182 
z
" style="fill:none;stroke:#000000;stroke-linejoin:miter;"/>
   </g>
   <g id="patch_92">
    <path clip-path="url(#p0a392b7327)" d="M 266.771363 261.589072 
C 267.809919 261.589072 268.806079 261.176449 269.540449 260.442079 
C 270.274819 259.707708 270.687442 258.711549 270.687442 257.672992 
C 270.687442 256.634436 270.274819 255.638276 269.540449 254.903906 
C 268.806079 254.169535 267.809919 253.756913 266.771363 253.756913 
C 265.732806 253.756913 264.736646 254.169535 264.002276 254.903906 
C 263.267906 255.638276 262.855283 256.634436 262.855283 257.672992 
C 262.855283 258.711549 263.267906 259.707708 264.002276 260.442079 
C 264.736646 261.176449 265.732806 261.589072 266.771363 261.589072 
z
" style="fill:none;stroke:#000000;stroke-linejoin:miter;"/>
   </g>
   <g id="patch_93">
    <path clip-path="url(#p0a392b7327)" d="M 247.906203 282.746182 
C 249.196532 282.746182 250.434186 282.233529 251.346586 281.321128 
C 252.258986 280.408728 252.771639 279.171074 252.771639 277.880745 
C 252.771639 276.590416 252.258986 275.352762 251.346586 274.440362 
C 250.434186 273.527962 249.196532 273.015309 247.906203 273.015309 
C 246.615874 273.015309 245.37822 273.527962 244.46582 274.440362 
C 243.553419 275.352762 243.040766 276.590416 243.040766 277.880745 
C 243.040766 279.171074 243.553419 280.408728 244.46582 281.321128 
C 245.37822 282.233529 246.615874 282.746182 247.906203 282.746182 
z
" style="fill:none;stroke:#000000;stroke-linejoin:miter;"/>
   </g>
   <g id="patch_94">
    <path clip-path="url(#p0a392b7327)" d="M 253.739435 282.746182 
C 254.203111 282.746182 254.64786 282.561961 254.975729 282.234092 
C 255.303598 281.906223 255.487818 281.461475 255.487818 280.997798 
C 255.487818 280.534122 255.303598 280.089373 254.975729 279.761505 
C 254.64786 279.433636 254.203111 279.249415 253.739435 279.249415 
C 253.275758 279.249415 252.83101 279.433636 252.503141 279.761505 
C 252.175272 280.089373 251.991051 280.534122 251.991051 280.997798 
C 251.991051 281.461475 252.175272 281.906223 252.503141 282.234092 
C 252.83101 282.561961 253.275758 282.746182 253.739435 282.746182 
z
" style="fill:none;stroke:#000000;stroke-linejoin:miter;"/>
   </g>
   <g id="patch_95">
    <path clip-path="url(#p0a392b7327)" d="M 249.826831 273.300322 
C 250.290508 273.300322 250.735256 273.116101 251.063125 272.788232 
C 251.390994 272.460363 251.575215 272.015615 251.575215 271.551938 
C 251.575215 271.088261 251.390994 270.643513 251.063125 270.315644 
C 250.735256 269.987775 250.290508 269.803555 249.826831 269.803555 
C 249.363155 269.803555 248.918406 269.987775 248.590538 270.315644 
C 248.262669 270.643513 248.078448 271.088261 248.078448 271.551938 
C 248.078448 272.015615 248.262669 272.460363 248.590538 272.788232 
C 248.918406 273.116101 249.363155 273.300322 249.826831 273.300322 
z
" style="fill:none;stroke:#000000;stroke-linejoin:miter;"/>
   </g>
   <g id="patch_96">
    <path clip-path="url(#p0a392b7327)" d="M 213.678974 189.479636 
C 220.844452 189.479636 227.717415 186.632761 232.784172 181.566003 
C 237.85093 176.499246 240.697805 169.626283 240.697805 162.460805 
C 240.697805 155.295327 237.85093 148.422365 232.784172 143.355607 
C 227.717415 138.288849 220.844452 135.441975 213.678974 135.441975 
C 206.513497 135.441975 199.640534 138.288849 194.573776 143.355607 
C 189.507018 148.422365 186.660144 155.295327 186.660144 162.460805 
C 186.660144 169.626283 189.507018 176.499246 194.573776 181.566003 
C 199.640534 186.632761 206.513497 189.479636 213.678974 189.479636 
z
" style="fill:none;stroke:#000000;stroke-linejoin:miter;"/>
   </g>
   <g id="patch_97">
    <path clip-path="url(#p0a392b7327)" d="M 245.952922 205.980011 
C 250.098973 205.980011 254.07577 204.332767 257.007471 201.401067 
C 259.939172 198.469366 261.586415 194.492569 261.586415 190.346518 
C 261.586415 186.200467 259.939172 182.22367 257.007471 179.291969 
C 254.07577 176.360268 250.098973 174.713025 245.952922 174.713025 
C 241.806871 174.713025 237.830074 176.360268 234.898373 179.291969 
C 231.966673 182.22367 230.319429 186.200467 230.319429 190.346518 
C 230.319429 194.492569 231.966673 198.469366 234.898373 201.401067 
C 237.830074 204.332767 241.806871 205.980011 245.952922 205.980011 
z
" style="fill:none;stroke:#000000;stroke-linejoin:miter;"/>
   </g>
   <g id="patch_98">
    <path clip-path="url(#p0a392b7327)" d="M 244.913926 174.739146 
C 246.251383 174.739146 247.534242 174.207769 248.479967 173.262043 
C 249.425693 172.316318 249.95707 171.033459 249.95707 169.696001 
C 249.95707 168.358544 249.425693 167.075685 248.479967 166.12996 
C 247.534242 165.184234 246.251383 164.652857 244.913926 164.652857 
C 243.576468 164.652857 242.293609 165.184234 241.347884 166.12996 
C 240.402158 167.075685 239.870781 168.358544 239.870781 169.696001 
C 239.870781 171.033459 240.402158 172.316318 241.347884 173.262043 
C 242.293609 174.207769 243.576468 174.739146 244.913926 174.739146 
z
" style="fill:none;stroke:#000000;stroke-linejoin:miter;"/>
   </g>
   <g id="patch_99">
    <path clip-path="url(#p0a392b7327)" d="M 225.37022 197.358347 
C 226.707678 197.358347 227.990536 196.826969 228.936262 195.881244 
C 229.881987 194.935519 230.413365 193.65266 230.413365 192.315202 
C 230.413365 190.977745 229.881987 189.694886 228.936262 188.74916 
C 227.990536 187.803435 226.707678 187.272057 225.37022 187.272057 
C 224.032762 187.272057 222.749903 187.803435 221.804178 188.74916 
C 220.858453 189.694886 220.327075 190.977745 220.327075 192.315202 
C 220.327075 193.65266 220.858453 194.935519 221.804178 195.881244 
C 222.749903 196.826969 224.032762 197.358347 225.37022 197.358347 
z
" style="fill:none;stroke:#000000;stroke-linejoin:miter;"/>
   </g>
   <g id="patch_100">
    <path clip-path="url(#p0a392b7327)" d="M 264.627103 215.527371 
C 267.026069 215.527371 269.327103 214.574252 271.023428 212.877926 
C 272.719753 211.181601 273.672872 208.880568 273.672872 206.481602 
C 273.672872 204.082636 272.719753 201.781602 271.023428 200.085277 
C 269.327103 198.388952 267.026069 197.435833 264.627103 197.435833 
C 262.228137 197.435833 259.927104 198.388952 258.230779 200.085277 
C 256.534454 201.781602 255.581334 204.082636 255.581334 206.481602 
C 255.581334 208.880568 256.534454 211.181601 258.230779 212.877926 
C 259.927104 214.574252 262.228137 215.527371 264.627103 215.527371 
z
" style="fill:none;stroke:#000000;stroke-linejoin:miter;"/>
   </g>
   <g id="patch_101">
    <path clip-path="url(#p0a392b7327)" d="M 264.025925 197.450947 
C 264.799797 197.450947 265.542078 197.143484 266.089289 196.596273 
C 266.6365 196.049063 266.943962 195.306782 266.943962 194.532909 
C 266.943962 193.759036 266.6365 193.016755 266.089289 192.469545 
C 265.542078 191.922334 264.799797 191.614871 264.025925 191.614871 
C 263.252052 191.614871 262.509771 191.922334 261.96256 192.469545 
C 261.41535 193.016755 261.107887 193.759036 261.107887 194.532909 
C 261.107887 195.306782 261.41535 196.049063 261.96256 196.596273 
C 262.509771 197.143484 263.252052 197.450947 264.025925 197.450947 
z
" style="fill:none;stroke:#000000;stroke-linejoin:miter;"/>
   </g>
   <g id="patch_102">
    <path clip-path="url(#p0a392b7327)" d="M 252.717649 210.538749 
C 253.491522 210.538749 254.233803 210.231286 254.781013 209.684076 
C 255.328224 209.136865 255.635687 208.394584 255.635687 207.620711 
C 255.635687 206.846839 255.328224 206.104558 254.781013 205.557347 
C 254.233803 205.010137 253.491522 204.702674 252.717649 204.702674 
C 251.943776 204.702674 251.201495 205.010137 250.654285 205.557347 
C 250.107074 206.104558 249.799611 206.846839 249.799611 207.620711 
C 249.799611 208.394584 250.107074 209.136865 250.654285 209.684076 
C 251.201495 210.231286 251.943776 210.538749 252.717649 210.538749 
z
" style="fill:none;stroke:#000000;stroke-linejoin:miter;"/>
   </g>
   <g id="patch_103">
    <path clip-path="url(#p0a392b7327)" d="M 275.432259 221.051614 
C 276.820337 221.051614 278.151748 220.500125 279.133267 219.518606 
C 280.114786 218.537088 280.666275 217.205676 280.666275 215.817599 
C 280.666275 214.429522 280.114786 213.09811 279.133267 212.116591 
C 278.151748 211.135072 276.820337 210.583584 275.432259 210.583584 
C 274.044182 210.583584 272.712771 211.135072 271.731252 212.116591 
C 270.749733 213.09811 270.198244 214.429522 270.198244 215.817599 
C 270.198244 217.205676 270.749733 218.537088 271.731252 219.518606 
C 272.712771 220.500125 274.044182 221.051614 275.432259 221.051614 
z
" style="fill:none;stroke:#000000;stroke-linejoin:miter;"/>
   </g>
   <g id="patch_104">
    <path clip-path="url(#p0a392b7327)" d="M 275.084409 210.592329 
C 275.532183 210.592329 275.961677 210.414426 276.278302 210.097802 
C 276.594926 209.781178 276.772828 209.351683 276.772828 208.903909 
C 276.772828 208.456135 276.594926 208.02664 276.278302 207.710016 
C 275.961677 207.393392 275.532183 207.21549 275.084409 207.21549 
C 274.636635 207.21549 274.20714 207.393392 273.890516 207.710016 
C 273.573892 208.02664 273.395989 208.456135 273.395989 208.903909 
C 273.395989 209.351683 273.573892 209.781178 273.890516 210.097802 
C 274.20714 210.414426 274.636635 210.592329 275.084409 210.592329 
z
" style="fill:none;stroke:#000000;stroke-linejoin:miter;"/>
   </g>
   <g id="patch_105">
    <path clip-path="url(#p0a392b7327)" d="M 268.541274 218.165124 
C 268.989048 218.165124 269.418543 217.987222 269.735167 217.670597 
C 270.051791 217.353973 270.229693 216.924479 270.229693 216.476704 
C 270.229693 216.02893 270.051791 215.599436 269.735167 215.282811 
C 269.418543 214.966187 268.989048 214.788285 268.541274 214.788285 
C 268.0935 214.788285 267.664005 214.966187 267.347381 215.282811 
C 267.030757 215.599436 266.852854 216.02893 266.852854 216.476704 
C 266.852854 216.924479 267.030757 217.353973 267.347381 217.670597 
C 267.664005 217.987222 268.0935 218.165124 268.541274 218.165124 
z
" style="fill:none;stroke:#000000;stroke-linejoin:miter;"/>
   </g>
   <g id="patch_106">
    <path clip-path="url(#p0a392b7327)" d="M 200.351373 137.577687 
C 204.497424 137.577687 208.474221 135.930444 211.405922 132.998743 
C 214.337623 130.067043 215.984866 126.090245 215.984866 121.944194 
C 215.984866 117.798144 214.337623 113.821346 211.405922 110.889646 
C 208.474221 107.957945 204.497424 106.310701 200.351373 106.310701 
C 196.205322 106.310701 192.228525 107.957945 189.296824 110.889646 
C 186.365124 113.821346 184.71788 117.798144 184.71788 121.944194 
C 184.71788 126.090245 186.365124 130.067043 189.296824 132.998743 
C 192.228525 135.930444 196.205322 137.577687 200.351373 137.577687 
z
" style="fill:none;stroke:#000000;stroke-linejoin:miter;"/>
   </g>
   <g id="patch_107">
    <path clip-path="url(#p0a392b7327)" d="M 190.617702 145.22957 
C 191.95516 145.22957 193.238019 144.698193 194.183744 143.752467 
C 195.129469 142.806742 195.660847 141.523883 195.660847 140.186426 
C 195.660847 138.848968 195.129469 137.566109 194.183744 136.620384 
C 193.238019 135.674658 191.95516 135.143281 190.617702 135.143281 
C 189.280245 135.143281 187.997386 135.674658 187.05166 136.620384 
C 186.105935 137.566109 185.574557 138.848968 185.574557 140.186426 
C 185.574557 141.523883 186.105935 142.806742 187.05166 143.752467 
C 187.997386 144.698193 189.280245 145.22957 190.617702 145.22957 
z
" style="fill:none;stroke:#000000;stroke-linejoin:miter;"/>
   </g>
   <g id="patch_108">
    <path clip-path="url(#p0a392b7327)" d="M 219.013774 135.888919 
C 220.351232 135.888919 221.634091 135.357542 222.579816 134.411816 
C 223.525542 133.466091 224.056919 132.183232 224.056919 130.845774 
C 224.056919 129.508317 223.525542 128.225458 222.579816 127.279733 
C 221.634091 126.334007 220.351232 125.80263 219.013774 125.80263 
C 217.676317 125.80263 216.393458 126.334007 215.447732 127.279733 
C 214.502007 128.225458 213.97063 129.508317 213.97063 130.845774 
C 213.97063 132.183232 214.502007 133.466091 215.447732 134.411816 
C 216.393458 135.357542 217.676317 135.888919 219.013774 135.888919 
z
" style="fill:none;stroke:#000000;stroke-linejoin:miter;"/>
   </g>
   <g id="patch_109">
    <path clip-path="url(#p0a392b7327)" d="M 192.639827 107.546456 
C 195.038793 107.546456 197.339826 106.593337 199.036152 104.897012 
C 200.732477 103.200687 201.685596 100.899653 201.685596 98.500687 
C 201.685596 96.101721 200.732477 93.800688 199.036152 92.104362 
C 197.339826 90.408037 195.038793 89.454918 192.639827 89.454918 
C 190.240861 89.454918 187.939827 90.408037 186.243502 92.104362 
C 184.547177 93.800688 183.594058 96.101721 183.594058 98.500687 
C 183.594058 100.899653 184.547177 103.200687 186.243502 104.897012 
C 187.939827 106.593337 190.240861 107.546456 192.639827 107.546456 
z
" style="fill:none;stroke:#000000;stroke-linejoin:miter;"/>
   </g>
   <g id="patch_110">
    <path clip-path="url(#p0a392b7327)" d="M 187.007782 111.973948 
C 187.781654 111.973948 188.523935 111.666485 189.071146 111.119275 
C 189.618357 110.572064 189.925819 109.829783 189.925819 109.055911 
C 189.925819 108.282038 189.618357 107.539757 189.071146 106.992546 
C 188.523935 106.445336 187.781654 106.137873 187.007782 106.137873 
C 186.233909 106.137873 185.491628 106.445336 184.944417 106.992546 
C 184.397207 107.539757 184.089744 108.282038 184.089744 109.055911 
C 184.089744 109.829783 184.397207 110.572064 184.944417 111.119275 
C 185.491628 111.666485 186.233909 111.973948 187.007782 111.973948 
z
" style="fill:none;stroke:#000000;stroke-linejoin:miter;"/>
   </g>
   <g id="patch_111">
    <path clip-path="url(#p0a392b7327)" d="M 203.438167 106.56931 
C 204.21204 106.56931 204.954321 106.261847 205.501531 105.714637 
C 206.048742 105.167426 206.356205 104.425145 206.356205 103.651272 
C 206.356205 102.8774 206.048742 102.135119 205.501531 101.587908 
C 204.954321 101.040697 204.21204 100.733235 203.438167 100.733235 
C 202.664294 100.733235 201.922013 101.040697 201.374803 101.587908 
C 200.827592 102.135119 200.520129 102.8774 200.520129 103.651272 
C 200.520129 104.425145 200.827592 105.167426 201.374803 105.714637 
C 201.922013 106.261847 202.664294 106.56931 203.438167 106.56931 
z
" style="fill:none;stroke:#000000;stroke-linejoin:miter;"/>
   </g>
   <g id="patch_112">
    <path clip-path="url(#p0a392b7327)" d="M 188.177813 90.169944 
C 189.56589 90.169944 190.897302 89.618455 191.87882 88.636936 
C 192.860339 87.655418 193.411828 86.324006 193.411828 84.935929 
C 193.411828 83.547852 192.860339 82.21644 191.87882 81.234921 
C 190.897302 80.253402 189.56589 79.701914 188.177813 79.701914 
C 186.789736 79.701914 185.458324 80.253402 184.476805 81.234921 
C 183.495286 82.21644 182.943798 83.547852 182.943798 84.935929 
C 182.943798 86.324006 183.495286 87.655418 184.476805 88.636936 
C 185.458324 89.618455 186.789736 90.169944 188.177813 90.169944 
z
" style="fill:none;stroke:#000000;stroke-linejoin:miter;"/>
   </g>
   <g id="patch_113">
    <path clip-path="url(#p0a392b7327)" d="M 184.919029 92.731756 
C 185.366803 92.731756 185.796297 92.553853 186.112921 92.237229 
C 186.429546 91.920605 186.607448 91.491111 186.607448 91.043336 
C 186.607448 90.595562 186.429546 90.166068 186.112921 89.849443 
C 185.796297 89.532819 185.366803 89.354917 184.919029 89.354917 
C 184.471254 89.354917 184.04176 89.532819 183.725136 89.849443 
C 183.408511 90.166068 183.230609 90.595562 183.230609 91.043336 
C 183.230609 91.491111 183.408511 91.920605 183.725136 92.237229 
C 184.04176 92.553853 184.471254 92.731756 184.919029 92.731756 
z
" style="fill:none;stroke:#000000;stroke-linejoin:miter;"/>
   </g>
   <g id="patch_114">
    <path clip-path="url(#p0a392b7327)" d="M 194.425891 89.604553 
C 194.873665 89.604553 195.30316 89.42665 195.619784 89.110026 
C 195.936408 88.793402 196.114311 88.363907 196.114311 87.916133 
C 196.114311 87.468359 195.936408 87.038864 195.619784 86.72224 
C 195.30316 86.405616 194.873665 86.227714 194.425891 86.227714 
C 193.978117 86.227714 193.548622 86.405616 193.231998 86.72224 
C 192.915374 87.038864 192.737472 87.468359 192.737472 87.916133 
C 192.737472 88.363907 192.915374 88.793402 193.231998 89.110026 
C 193.548622 89.42665 193.978117 89.604553 194.425891 89.604553 
z
" style="fill:none;stroke:#000000;stroke-linejoin:miter;"/>
   </g>
   <g id="line2d_25">
    <path clip-path="url(#p0a392b7327)" d="M 73.832727 282.746182 
L 398.487273 282.746182 
L 398.487273 228.637091 
L 290.269091 228.637091 
L 182.050909 66.309818 
L 73.832727 66.309818 
L 73.832727 282.746182 
L 73.832727 282.746182 
" style="fill:none;stroke:#000000;stroke-linecap:round;stroke-width:1.5;"/>
   </g>
   <g id="patch_115">
    <path d="M 57.6 307.584 
L 57.6 41.472 
" style="fill:none;stroke:#262626;stroke-linecap:square;stroke-linejoin:miter;stroke-width:1.25;"/>
   </g>
   <g id="patch_116">
    <path d="M 414.72 307.584 
L 414.72 41.472 
" style="fill:none;stroke:#262626;stroke-linecap:square;stroke-linejoin:miter;stroke-width:1.25;"/>
   </g>
   <g id="patch_117">
    <path d="M 57.6 307.584 
L 414.72 307.584 
" style="fill:none;stroke:#262626;stroke-linecap:square;stroke-linejoin:miter;stroke-width:1.25;"/>
   </g>
   <g id="patch_118">
    <path d="M 57.6 41.472 
L 414.72 41.472 
" style="fill:none;stroke:#262626;stroke-linecap:square;stroke-linejoin:miter;stroke-width:1.25;"/>
   </g>
  </g>
 </g>
 <defs>
  <clipPath id="p0a392b7327">
   <rect height="266.112" width="357.12" x="57.6" y="41.472"/>
  </clipPath>
 </defs>
</svg>
